<?xml version="1.0" encoding="iso-8859-1"?>
<!-- Generator: Adobe Illustrator 18.0.0, SVG Export Plug-In . SVG Version: 6.00 Build 0)  -->
<!DOCTYPE svg PUBLIC "-//W3C//DTD SVG 1.1//EN" "http://www.w3.org/Graphics/SVG/1.1/DTD/svg11.dtd">
<svg version="1.1" id="Layer_1" xmlns="http://www.w3.org/2000/svg" xmlns:xlink="http://www.w3.org/1999/xlink" x="0px" y="0px"
	 viewBox="0 0 480.5 279" style="enable-background:new 0 0 480.5 279;" xml:space="preserve">
<g>
	<path style="fill:#EFEFEF;" d="M32.947,32.196c-0.24,0.42-0.601,0.84-0.96,1.26c-0.301,0.66-0.721,1.26-1.141,1.68
		c-1.5,2.401-4.201,3.661-8.102,3.661c-0.601,0-1.141,0-1.681-0.06c0.3,1.74,0.601,3.48,0.72,5.221
		c0.24,2.04,0.12,3.661-0.359,5.041c-0.42,1.38-1.2,2.641-2.341,3.601c-0.42,1.14-1.2,2.16-2.16,3c-0.42,0.36-1.561,1.2-2.94,1.2
		c-0.9,0-1.741-0.42-2.341-1.14c-0.12-0.12-0.24-0.24-0.3-0.421c-0.421-0.119-0.721-0.42-0.961-0.779
		c-0.6-0.961-0.72-1.98-0.84-2.881c-0.06-0.18-0.06-0.36-0.06-0.48l-1.501-9.302c-0.359-2.041-0.66-4.201-0.96-6.421
		c-1.62-0.6-3.181-1.32-4.681-2.161c-0.841-0.42-1.261-1.32-1.021-2.22c0.06-0.18,0.12-0.36,0.24-0.54
		c-0.061-0.12-0.12-0.24-0.12-0.42c-0.42-1.26-0.24-2.641,0.36-3.721c0.359-0.66,0.96-1.2,1.62-1.56c0.06-0.48,0.24-0.96,0.479-1.38
		c0,0,0.061-0.06,0.061-0.12c-0.42-1.44-0.9-2.881-1.381-4.201c-0.3-0.9-0.239-1.92,0.181-2.76c0.3-0.54,0.66-1.021,1.2-1.38
		c0.12-0.48,0.42-0.9,0.78-1.26c0-0.06,0.06-0.18,0.12-0.3c0.3-0.54,0.66-1.02,1.2-1.38c0.18-0.66,0.6-1.201,1.2-1.621
		c1.021-0.72,2.221-1.08,3.601-1.08c1.44,0,3.061,0.42,4.801,1.32c2.101,1.08,4.081,2.34,5.882,3.541
		c3.66,2.4,7.381,5.281,10.982,8.522c0.66,0.66,1.14,1.44,1.2,2.28c0.359,0.72,0.6,1.38,0.72,2.041
		C34.867,29.555,33.907,31.176,32.947,32.196z M32.587,27.275c-0.12-0.6-0.36-1.201-0.72-1.801c0.06-0.48-0.12-0.96-0.601-1.38
		c-3.421-3.061-6.961-5.881-10.742-8.402c-1.86-1.2-3.721-2.401-5.701-3.421c-1.921-0.96-4.501-1.74-6.481-0.36
		c-0.36,0.3-0.66,0.72-0.601,1.26c-0.899,0.3-1.62,1.26-1.26,2.28c0.9,2.581,1.681,5.221,2.4,7.862c-0.12-0.06-0.24-0.12-0.36-0.18
		c-1.08-0.42-2.46,0.3-3,1.2c-0.66,1.14-0.36,3.001,0.96,3.601s2.641,1.2,4.021,1.74c0.061,0.36,0.181,0.66,0.24,1.02
		c-1.8-0.66-3.601-1.38-5.341-2.22c-0.12-0.06-0.181,0.06-0.12,0.12c1.8,0.96,3.661,1.8,5.521,2.521
		c0.359,2.46,0.72,4.981,1.14,7.441c0.3,2.101,0.66,4.141,0.96,6.181c0.181,1.021,0.36,2.041,0.541,3.121
		c0.119,0.84,0.119,1.92,0.6,2.641c0.06,0.06,0.06,0.06,0.06,0c0.24-0.72,0-1.62-0.06-2.4c-0.18-1.02-0.3-2.041-0.42-3.121
		c-0.12-0.6-0.18-1.2-0.24-1.86c0.18,1.08,0.42,2.101,0.72,3.061c0.061,0.78,0.181,1.561,0.301,2.281
		c0.12,1.08,0.12,2.22,0.78,3.061c0.72,0.9,1.98,0.24,2.641-0.3c0.84-0.78,1.5-1.74,1.8-2.76c0.42-1.38,0.42-2.881,0.3-4.321
		c-0.3-2.94-0.899-5.941-1.439-8.882c-0.12-0.66-0.301-1.38-0.421-2.101c0.54,0.12,1.081,0.18,1.621,0.3
		c3.721,0.6,9.602,1.44,11.762-2.46C32.347,30.155,32.827,28.955,32.587,27.275z M28.026,27.515c0.12,0.12,0.18,0.24,0.239,0.36
		c-0.18,0.06-0.3,0.06-0.479,0.12c-0.36,0.06-0.78,0.12-1.2,0.12c-2.041,0.18-4.081-0.06-6.062-0.48
		c-1.32-0.3-2.581-0.66-3.841-1.08c-0.48-2.341-1.08-4.621-1.681-6.901c1.381,0.6,2.701,1.26,4.021,1.92
		c1.74,0.96,3.48,1.98,5.221,3C25.625,25.415,27.186,26.254,28.026,27.515z M18.004,41.978c0.06,0-0.061-0.72,0-0.78
		c0.06,0.36,0.3,1.5,0.36,1.86c0.42,1.98,0.66,4.021-0.181,5.881c-0.18,0.18-0.359,0.3-0.6,0.42c-0.061-0.06-0.061-0.12-0.12-0.18
		c0.96-1.8,0.84-4.021,0.66-6.001C18.063,42.758,18.063,42.398,18.004,41.978z M26.766,32.736c0,0.06,1.261-0.06,1.261,0
		c-0.36,0.06-1.921,0.3-2.281,0.36c-2.34,0.24-4.801-0.12-7.142-0.48c-0.239,0-0.42-0.06-0.66-0.12c-0.06-0.12-0.06-0.3-0.119-0.48
		c1.14,0.24,2.22,0.48,3.301,0.6C22.625,32.856,24.726,32.976,26.766,32.736z"/>
	<path style="fill:#EFEFEF;" d="M45.548,48.459c0.12,0.72-0.06,1.38-0.54,1.86c-0.36,0.48-0.96,0.72-1.561,0.78c0,0.12,0,0.24,0,0.3
		c0.12,0.72-0.06,1.38-0.54,1.861c-0.42,0.479-1.08,0.779-1.801,0.779h-0.06c-0.3,0.66-0.78,1.261-1.5,1.621
		c-0.721,0.359-1.561,0.54-2.4,0.54c-1.501,0-3.001-0.601-4.081-1.681c-0.36-0.18-0.721-0.42-1.021-0.72
		c-1.681-1.501-1.92-3.601-2.101-5.282c0-0.18,0-0.36-0.06-0.54c-0.601-4.981-0.9-9.482-0.841-13.623c0-0.42,0-0.78,0-1.201
		c0-1.8,0-3.661,0.24-5.521c0.181-1.68,0.721-3,1.561-3.961c0.12-0.12,0.18-0.18,0.24-0.3c-0.66-0.3-2.221-1.081-2.641-2.581
		c-0.3-1.2,0.06-2.46,1.021-3.841c0.42-0.48,0.779-0.9,1.26-1.32c0.18-0.54,0.48-1.021,0.84-1.621c0.54-0.72,1.141-1.32,1.801-1.8
		c0.18-0.18,0.36-0.3,0.6-0.48c1.741-1.14,3.481-1.74,5.102-1.74c0.601,0,1.141,0.06,1.681,0.18c2.34,0.6,3.961,2.041,4.681,4.081
		c0.48,1.38,0,2.88-1.32,3.841c-0.18,0.12-0.36,0.24-0.6,0.36c-0.061,0.66-0.301,1.26-0.66,1.741c0.119,0.36,0.239,0.72,0.239,1.08
		c0,0.06,0,0.06,0,0.12c0.181,0.12,0.36,0.24,0.54,0.36c0.36,0.42,0.601,0.9,0.541,1.44C43.987,31.656,44.468,40.177,45.548,48.459z
		 M33.905,18.633c0.9,0.36,1.801,0.48,2.761,0.48c1.141,0,2.46-0.3,3.181-1.14c1.141-0.24,2.28-0.78,3.181-1.44
		c0.48-0.36,0.9-0.96,0.66-1.62c-0.601-1.561-1.801-2.46-3.421-2.881c-1.86-0.48-3.721,0.24-5.281,1.32
		c-0.12,0.06-0.24,0.18-0.36,0.3c-0.6,0.42-1.08,0.9-1.5,1.5c-0.42,0.6-0.96,1.44-0.72,2.22
		C32.525,17.973,33.365,18.453,33.905,18.633z M34.386,18.393c-0.421-0.12-0.78-0.36-1.141-0.66c-0.48-0.42-0.42-0.84-0.18-1.38
		c0.24-0.42,0.479-0.78,0.78-1.141c-0.601,1.38,0.06,2.761,1.8,3.121c1.381,0.24,2.161,0.12,2.881-0.06c0.06,0-0.36,0.54-2.101,0.54
		C35.706,18.753,35.046,18.633,34.386,18.393z M43.688,48.759c-1.141-8.522-1.62-17.043-1.381-25.625c0-0.06-0.42,0-0.42,0.12
		c-0.24,4.261-0.24,10.562-0.06,14.823c-0.12,0-0.3-2.101-0.42-2.041c-0.061-0.54-0.12-1.08-0.12-1.5
		c-0.061-2.22-0.181-4.441-0.181-6.601c0-2.221,0.12-4.381,0.12-6.602c-0.06-0.54-0.54-0.78-0.96-0.72
		c-0.96-2.4-4.021-0.18-5.281,0.66c-0.18,0.18-0.36,0.36-0.479,0.6c-0.721,0.72-1.081,1.86-1.261,3
		c-0.24,2.161-0.18,4.381-0.18,6.542c-0.061,4.501,0.24,8.942,0.78,13.383c0.239,1.681,0.3,3.481,1.56,4.681
		c0.301,0.24,0.601,0.42,0.9,0.54c0.061,0.06,0.061,0.12,0.12,0.18c1.141,1.14,2.94,1.5,4.381,0.78c0.54-0.24,0.66-0.72,0.601-1.141
		c0.479-0.18,0.96-0.54,1.26-1.02C42.787,49.419,43.747,49.359,43.688,48.759z M36.426,23.734c0,0,0,0,0.061,0
		c-0.66,1.92-0.78,4.141-0.78,6.181c-0.061,2.701,0,5.401,0,8.102h-0.181c-0.18-1.44-0.359-2.881-0.479-4.321c0-0.06,0-0.06,0-0.12
		c0-0.18,0-0.36,0-0.6c0.12-2.761,0.06-5.941,0.96-8.642C36.006,24.214,36.246,23.854,36.426,23.734z"/>
	<path style="fill:#EFEFEF;" d="M75.973,40.658c-0.84,3.121-2.221,5.881-4.081,7.861c-0.96,1.741-2.16,3.181-3.54,4.321
		c-3.121,2.521-7.202,3.961-11.163,3.961c-1.98,0-3.96-0.359-5.761-1.08c-5.642-2.341-9.842-7.202-11.103-13.083
		c-0.48-2.161-0.54-4.681-0.3-6.902c0.9-7.801,7.081-15.723,13.263-20.284c1.261-0.9,2.521-1.68,3.781-2.46
		c0.18-0.06,0.359-0.18,0.479-0.24c1.2-0.72,2.701-1.62,4.381-1.62c0.12,0,0.301,0.06,0.42,0.06c2.041,0.18,3.481,1.56,3.721,3.42
		c0.36,1.021,0.36,1.98,0.24,3.001c-0.06,0.96-0.06,1.86-0.06,2.88c0,2.041,0,3.901,0.12,5.701c0,0.42,0,0.84,0,1.2
		c0.359-0.36,0.84-0.72,1.32-1.02c0.84-0.48,1.74-0.72,2.641-0.72c1.86,0,3.601,0.96,4.681,2.581
		C77.594,32.136,76.693,37.657,75.973,40.658z M73.452,29.255c-1.08-1.561-3.12-2.281-4.801-1.26
		c-1.801,1.02-2.04,3.061-1.261,4.801c-0.06-0.06-0.06-0.18-0.119-0.24c0.479,0.9,0.54,1.92,0.6,2.941
		c0.061,2.1-0.18,4.381-1.26,6.301c-0.36,0.72-0.961,1.44-1.561,1.98c-1.62,1.44-3.721,2.22-5.941,2.28c-0.24,0-0.54-0.06-0.78-0.06
		c-3.9-0.24-7.201-3.601-8.342-7.141c-0.42-1.32-0.66-2.701-0.6-4.141c0-0.3,0-0.66,0.06-0.96c0-0.36,0.06-0.36,0.12-0.84
		c0.96-5.101,4.381-9.182,8.462-12.303c0.3-0.18,0.54-0.36,0.78-0.54c0.12,3.841,0.239,7.682,0.359,11.583
		c0.061,1.92,0,3.901,0.841,5.761c0.66,1.44,2.28,2.46,3.841,2.28c1.26-0.12,1.02-1.98-0.24-1.74c-1.74,0.3-2.581-1.621-2.94-3
		c0-0.06,0-0.12,0-0.18h0.18c0.12,0.36,0.24,0.78,0.48,1.14c0.359,0.72,0.9,1.32,1.68,1.561c0.12,0,0.301,0.06,0.48,0
		c0.06,0.12,0.18,0.18,0.36,0.3c0.3,0.18,0.78,0,0.84-0.36c0.18-0.78,0.061-1.621,0.061-2.46c-0.061-0.96-0.12-1.98-0.12-3.001
		c-0.061-1.92-0.12-3.841-0.181-5.701c-0.06-1.92-0.12-7.802,0-8.822c0.061-0.9,0.12-1.62-0.24-2.34c0-1.021-0.779-1.92-2.04-2.041
		c-1.44-0.12-2.94,0.9-4.141,1.62c-1.261,0.72-2.461,1.5-3.601,2.341c-2.461,1.74-4.501,3.841-6.302,6.241
		c-2.7,3.48-4.201,7.802-4.261,12.183c0,1.32,0.18,2.641,0.42,3.901c1.141,5.281,5.041,9.662,9.962,11.643
		c5.041,2.041,10.982,0.72,15.063-2.581c2.521-1.98,4.021-5.161,4.801-8.222C75.013,36.817,75.433,32.316,73.452,29.255z
		 M56.169,41.078c-0.841-1.92-0.9-3.961-0.961-5.761c0-0.18,0-0.42,0-0.66l-0.239-7.802c-0.66,0.54-1.261,1.2-1.86,1.86
		c-0.78,1.38-1.381,2.881-1.681,4.501l-0.061,0.24c-0.06,0.3-0.06,0.3-0.06,0.48c0,0.3-0.06,0.54-0.06,0.84c0,0.48,0,1.08,0.06,1.62
		c0,0.06,0,0.12,0,0.12c0,0.06,0.06,0.06,0.06,0.12c0.061,0.24,0.061,0.54,0.12,0.72c0.181,0.6,0.301,1.02,0.48,1.44v0.12
		c0.06,0.12,0.12,0.24,0.18,0.36c0.12,0.18,0.24,0.42,0.36,0.6c0.24,0.48,0.48,0.84,0.721,1.14c0.06,0.12,0.18,0.24,0.3,0.36
		c0.12,0.18,0.3,0.36,0.42,0.48c0.18,0.18,0.36,0.36,0.54,0.48c0.12,0.12,0.24,0.18,0.36,0.3c0.479,0.36,0.84,0.6,1.2,0.78h0.06
		c0.061,0.06,0.181,0.12,0.24,0.12c0.061,0.06,0.12,0.06,0.18,0.12c0.12,0.06,0.24,0.06,0.36,0.12c0.48,0.12,0.841,0.24,1.141,0.3
		c0.12,0,0.42,0,0.42,0.06c0.24,0,0.48,0,0.66,0c0.06,0,0.18,0,0.24,0C57.969,43.598,56.769,42.458,56.169,41.078z M59.649,25.895
		c-0.18-1.98-0.42-3.961-0.601-6.001c0.301-0.18,0.66-0.42,0.961-0.66c-0.181,2.221-0.181,4.441-0.061,6.662H59.649z"/>
	<path style="fill:#EFEFEF;" d="M103.938,15.032c-0.06,1.14-0.6,2.16-1.38,2.82c-0.061,0.96-0.421,2.701-2.041,3.781
		c-0.06,0.06-0.12,0.12-0.24,0.18c-0.239,0.9-0.72,1.98-1.86,2.761c-0.3,0.24-0.66,0.42-1.14,0.54c-0.24,0.18-0.601,0.3-0.9,0.36
		c-1.74,0.36-3.601,0.66-5.521,1.021c0,1.2,0,2.46,0,3.661c0,1.08,0,2.161,0,3.241c0,2.521,0.061,5.161,0,7.742
		c0.12,1.68,0.181,3.961,0.301,6.241v0.12l-0.061,0.12c-0.06,1.14-0.3,3.541-2.101,4.981l-0.42,0.3c-0.3,0.96-0.78,1.92-1.681,2.641
		l-2.76,1.02c-0.48,0.12-1.021,0.24-1.501,0.24c-0.479,0-0.9-0.06-1.26-0.18c-4.201-1.261-4.441-6.001-4.562-7.562
		c-0.18-3.481-0.06-6.842,0.061-9.422c0.06-1.38,0.12-2.76,0.18-4.141c0.12-1.681,0.18-3.421,0.3-5.161l0.061-2.581
		c0,0-0.3,0-0.42,0c-1.621-0.06-3.301-0.06-5.041-0.24c-1.381-0.18-3.062-0.42-4.441-1.32c-1.021-0.6-1.86-1.56-2.4-2.641
		c-1.62-1.2-2.4-3.3-1.86-5.281c0.3-1.2,1.08-2.221,2.101-2.881v-0.06c0.42-1.56,1.62-2.82,3-3.36c0.301-0.78,1.081-1.32,1.921-1.32
		h0.06h0.061c3.181,0.18,6.421,0.3,9.662,0.3c4.86,0,9.962-0.24,15.123-0.66c0.72-0.12,1.44-0.24,2.04-0.24h0.12
		c0.24-0.06,0.48-0.06,0.841-0.06c0,0,0,0,0.06,0c0.96-0.12,1.74-0.18,2.521-0.24c0.06-0.06,0.18-0.06,0.3-0.06
		c1.2,0,2.221,0.96,2.341,2.221c0,0.24,0,0.48-0.06,0.72C103.759,13.352,103.998,14.192,103.938,15.032z M101.058,12.992
		c-0.12-0.12-0.24-0.18-0.359-0.24c0.119-0.06,0.3-0.06,0.42-0.06c0.6-0.12,0.42-1.14-0.12-1.08c-0.9,0.12-1.801,0.18-2.701,0.3
		c-0.359-0.06-0.72,0-1.02,0c-0.601,0.06-1.2,0.12-1.86,0.24c-8.342,0.72-16.744,0.9-25.146,0.42c-0.181-0.06-0.24,0.3-0.061,0.3
		c3.241,0.54,6.481,0.9,9.723,1.08c0,0.06-0.061,0.12-0.061,0.18c-3.301,0-6.541-0.24-9.842-0.54c-1.32-0.12-2.521,1.02-2.881,2.221
		c-0.359,1.44,0.36,2.88,1.561,3.541c0.36,0.96,1.141,1.8,1.921,2.34c1.08,0.66,2.4,0.84,3.66,1.021
		c1.561,0.12,3.181,0.18,4.801,0.18c0.78,0,1.561,0,2.341,0c0,0.601,0,1.261,0,1.92l-0.12,2.641c-0.12,3.121-0.3,6.242-0.479,9.302
		c-0.12,3.061-0.181,6.181,0,9.242c0.119,2.341,0.66,5.101,3.181,5.881c1.26,0.36,2.76-0.36,3.181-1.68
		c0.42-1.2,0.479-2.881,0.72-3.961c0,0.48,0,1.86,0,2.28c-0.06,0.84-0.06,1.681-0.12,2.521c0,0,0,0.06,0,0.12
		c1.08-0.84,1.32-2.28,1.44-3.721c-0.06-2.101-0.18-4.201-0.24-6.301c0-3.661-0.06-7.322-0.06-10.982c0-2.641,0.06-5.281,0.06-7.922
		c3.061-0.42,6.062-0.96,9.122-1.56c0.18,0,0.3-0.12,0.42-0.24c0.301-0.06,0.66-0.18,0.9-0.36c0.96-0.66,1.2-1.74,1.261-2.821
		c0.119-0.18,0.18-0.36,0.239-0.6C102.378,16.052,102.438,13.772,101.058,12.992z M70.331,19.893c2.341,0.72,4.741,1.14,7.142,1.38
		c-1.08,0.06-2.16,0.06-3.181,0C72.852,21.213,71.292,20.793,70.331,19.893z"/>
	<path style="fill:#EFEFEF;" d="M131.062,25.534c0.3,6.122-0.18,10.982-1.44,15.423c-0.96,3.241-2.341,5.881-4.141,7.922
		c-0.9,1.5-1.921,2.82-3.061,3.84c-0.12,0.12-0.24,0.24-0.42,0.36c-0.421,0.48-1.621,1.681-2.941,2.341
		c-1.5,0.9-3.181,1.38-5.041,1.38c-3.601,0-7.441-1.86-10.082-4.861c-0.84-1.02-1.62-2.161-2.28-3.421
		c-1.141-0.24-2.041-1.08-2.461-2.22c-2.94-7.501-3.48-16.264-1.56-24.725c0.6-2.581,1.74-4.621,3.12-5.881
		c1.44-2.941,3.661-4.621,6.302-4.621c0.3,0,0.6,0,0.96,0.06c1.681,0.24,3.181,1.2,4.081,2.581c0.9,1.26,1.2,2.82,0.9,4.321v0.24
		c-0.061,0.36-0.12,0.72-0.36,0.96c-0.96,7.142-0.12,14.403,2.46,21.185c0.36,0.3,0.721,0.42,1.141,0.48c0.06,0,0.12,0,0.18-0.06
		c0.12-1.08,0.181-2.28,0.24-3.241c0-0.42,0-0.84,0.061-1.26c0.3-5.221,0.3-10.502,0.18-15.963c0-1.08,0.42-2.16,1.261-2.94
		c0.239-0.3,0.6-0.54,0.899-0.78c0.181-0.78,0.601-1.56,1.2-2.16c0.721-0.78,1.741-1.26,2.761-1.38c0.181-0.24,0.3-0.42,0.54-0.6
		c0.54-0.6,1.32-0.9,2.041-0.9c0.12,0,0.24,0,0.359,0c4.201,0.48,4.562,4.681,4.741,6.961l0.061,0.12c0,0.42,0.06,0.84,0.12,1.26
		c0.119,1.08,0.239,2.161,0.239,3.241L131.062,25.534z M129.202,25.594c0-0.78,0-1.62,0-2.4c0-1.44-0.24-2.88-0.36-4.321
		c-0.18-2.221-0.42-5.101-3.12-5.401c-0.66-0.06-1.2,0.6-1.2,1.2c0,0.24,0,0.42,0,0.6c-1.501-0.84-3.661,0.36-3.602,2.161
		c0.061,5.401,0.12,10.742-0.239,16.083c-0.12,2.041,0,5.821-1.381,7.862c-0.84,0.72-1.86,1.2-3.001,1.44
		c-1.08-0.06-1.979-0.54-2.82-1.2c-1.62-4.321-2.7-8.822-3-13.443c-0.12-2.22-0.12-4.501,0.06-6.781
		c0.12-1.86,1.08-4.081,0.42-5.881c-0.54-1.32-1.8-2.34-3.24-2.521c-3.602-0.54-5.462,3.121-6.122,6.121
		c-1.8,7.742-1.5,16.144,1.44,23.585c0.36,0.9,1.2,1.2,1.921,1.14c0.66,1.38,1.5,2.701,2.521,3.901
		c3.001,3.48,8.582,5.701,12.723,3.061c1.021-0.48,2.101-1.44,2.641-2.041c0.12-0.12,0.24-0.24,0.42-0.36
		c2.28-2.101,3.661-5.041,4.561-7.982C129.202,35.617,129.442,30.575,129.202,25.594z M110.418,35.256
		c-0.06-0.06-0.12-0.06-0.18-0.06c-0.181-0.72-0.36-1.5-0.48-2.28c-0.78-3.961-0.78-8.102-0.3-12.183
		c0.24-0.48,0.36-1.021,0.479-1.561c0.061,0.12,0.24,0.18,0.36,0.12C109.397,24.574,109.458,29.975,110.418,35.256z"/>
	<path style="fill:#EFEFEF;" d="M165.688,29.375c-0.061,0.42-0.12,0.84-0.12,1.2c-0.18,1.38-1.08,2.581-2.16,3.241
		c-0.42,1.92-2.161,3.481-3.961,3.481c-0.061,0-0.181,0-0.24,0c-0.3-0.06-0.54-0.06-0.84-0.06c0.18,0.36,0.42,0.78,0.6,1.14
		c0.12,0.24,0.24,0.54,0.36,0.78c1.681,3.421,3.601,7.262,3.061,11.402c-0.18,1.32-0.96,2.28-2.101,2.761c0,0.06,0,0.12,0,0.18
		c-0.24,1.801-1.681,3.061-3.541,3.061c-0.359,0-0.779-0.06-1.14-0.18c-0.12,0-0.24,0-0.3,0c-0.36,0-0.721-0.06-1.081-0.12
		c-0.239,0.061-0.42,0.061-0.66,0.061c-0.359,0-0.72-0.061-1.08-0.24l-0.66-0.3l-0.24-0.721c-0.96-2.521-2.1-5.161-3.48-8.282
		c-0.66-1.56-1.86-4.681-1.86-4.681c-0.18-0.3-0.3-0.6-0.479-0.9c0.06,0.24,0.06,0.48,0.06,0.72c0,1.32-0.601,4.081-0.96,5.881
		c0,0.9-0.061,1.68-0.12,2.28l-0.24,0.48c-0.48,0.9-1.08,1.681-1.801,2.341c-0.06,0-0.06,0-0.06,0v0.12l-0.24,0.479
		c-0.479,0.9-1.08,1.681-1.8,2.341c-0.78,0.601-1.681,0.96-2.641,0.96c-1.081,0-2.041-0.479-2.761-1.32
		c-0.12-0.18-0.24-0.359-0.36-0.6c-0.84-0.42-1.44-1.261-1.5-2.28c-0.181-0.841-0.24-1.741-0.24-2.581c0-0.48-0.061-1.02-0.12-1.44
		c-0.12-1.14-0.3-2.4-0.54-3.901c-0.48-3.241-0.36-7.501-2.641-10.082c-1.561-1.8-3.781-3.361-3.001-6.121
		c0.301-1.14,1.021-2.041,1.98-2.521c0.061-0.12,0.061-0.24,0.12-0.42c0-0.12,0.061-0.18,0.061-0.3c-0.24-1.26-0.48-2.4-0.721-3.541
		l-0.3-1.14l0.84-0.66c-0.9-1.5-1.08-3.301-0.3-4.801c0.3-0.6,0.84-1.32,1.681-1.801c0.12-0.42,0.24-0.78,0.42-1.14
		c0.54-1.2,1.92-2.581,4.98-2.581c1.261,0,2.521,0.24,3.481,0.42l0.24,0.06c0.42,0.06,0.779,0.18,1.14,0.42
		c0.3,0.12,0.66,0.24,1.021,0.36c0.06,0.06,0.06,0.06,0.12,0.06c6.841,2.161,12.963,6.361,18.904,10.382
		c0.6,0.42,1.08,1.02,1.38,1.74c0.6,0.48,1.26,0.96,1.98,1.5C165.327,25.594,165.987,27.335,165.688,29.375z M162.687,26.015
		c-0.78-0.6-1.62-1.26-2.46-1.86c-0.12-0.48-0.36-0.96-0.841-1.32c-5.881-3.961-11.822-8.042-18.424-10.143
		c-0.06,0-0.12-0.06-0.18-0.06c-0.42-0.18-0.84-0.3-1.261-0.48c-0.12-0.12-0.3-0.24-0.54-0.24c-1.98-0.36-5.581-1.141-6.721,1.08
		c-0.66,1.38,0,3.061,1.14,4.021c-0.36,0.54-0.78,0.96-1.26,1.32c0.479,2.04,0.899,4.141,1.32,6.181c-0.36,0-0.721,0-1.081,0.06
		c-1.8,0-2.521,3-0.84,4.081c0.54,0.36,1.2,0.72,1.801,0.96c-0.48,0.06-0.9,0.12-1.381,0.18c0.66,0.24,1.32,0.48,1.98,0.66
		c0.24,0.06,0.36,0.24,0.36,0.42c0.12,0,0.24,0,0.36,0c0.12,0.72,0.239,1.38,0.359,2.101c0.48,2.82,0.961,5.641,1.44,8.461
		c0.181,1.32,0.36,2.641,0.54,3.961c0.12,1.32,0,2.761,0.301,4.021c0,0.66,0.6,1.08,1.08,0.96c0.06,0.36,0.18,0.66,0.36,0.96
		c0.72,0.84,1.92,0.78,2.7,0.12c0.6-0.48,1.021-1.08,1.38-1.8c0-0.3,0-0.66-0.06-1.021c0.18-2.94-0.12-6.001-0.3-8.942
		c-0.12-2.76-0.36-5.521-0.66-8.222c1.56,0.06,3.181,0.18,4.74,0.24c0.301,0.54,0.66,1.14,1.021,1.68v0.06
		c0.36,0.6,0.66,1.2,0.96,1.86c1.141,2.221,2.761,6.181,3.421,7.742c1.2,2.761,2.4,5.581,3.48,8.402c0.24,0.12,0.601,0,0.78-0.18
		c0,0.06,0.061,0.06,0.12,0.06c0.54,0.24,1.08,0.24,1.62,0.18c1.021,0.42,2.401,0.12,2.581-1.2c0.48-3.901-1.62-7.682-3.24-11.103
		c-1.261-2.581-2.701-5.041-4.321-7.441c2.82,0.24,5.641,0.48,8.462,0.66c0.96,0.12,2.101-0.9,2.221-2.041
		c0.06-0.42,0.119-0.84,0.18-1.26C164.007,27.815,163.647,26.734,162.687,26.015z M139.282,18.993
		c5.161,1.2,9.962,3.781,14.583,6.961c-1.921-0.24-3.901-0.48-5.821-0.72c-1.381-1.14-3.361-2.761-5.161-1.621
		c-0.301,0.24-0.48,0.6-0.54,0.9c-0.301-0.06-0.66-0.06-0.961-0.12c-0.239-1.26-0.54-2.521-0.84-3.781
		c-0.06-0.54-0.66-0.54-0.96-0.24c-0.061-0.12-0.061-0.3-0.12-0.42C139.401,19.653,139.342,19.293,139.282,18.993z M144.263,42.758
		c-0.3-3.601-0.6-7.201-1.2-10.682c-0.06,0-0.36,0-0.48,0c0.721,4.921,0.9,9.902,1.141,14.883
		C143.963,45.519,144.443,44.918,144.263,42.758z"/>
	<path style="fill:#EFEFEF;" d="M200.674,44.078c-0.181,0.36-0.48,0.72-0.841,0.9c-0.24,0.78-0.66,1.44-1.26,2.041
		c-0.36,0.66-1.021,1.14-1.801,1.32c-4.561,0.9-8.882,2.041-12.902,3.42c-1.86,0.66-3.841,1.381-5.821,2.16
		c-0.12,0.061-0.24,0.12-0.36,0.12l-0.24,0.12c-0.54,0.24-1.08,0.48-1.74,0.721c-0.78,0.54-1.681,0.96-2.881,1.32
		c-0.479,0.18-1.08,0.42-1.8,0.54l-0.181,0.06h-0.18c-0.18,0-0.3,0-0.48-0.06c-0.3,0.06-0.6,0.06-0.899,0.06
		c-1.621,0-2.881-0.78-3.541-2.101c-0.061-0.12-0.12-0.3-0.18-0.479c-0.66-0.48-1.201-1.141-1.561-1.86
		c-0.54-1.081-0.721-2.221-0.54-3.301c-0.181-1.38-0.301-2.761-0.421-4.141c-0.06-0.6-0.119-1.26-0.18-1.92l-1.32-13.503
		c-0.78-1.08-1.2-2.46-1.08-3.841c0.12-1.14,0.54-2.101,1.141-3c-0.181-0.36-0.301-0.72-0.24-1.14c0.06-0.72,0.479-1.38,1.08-1.681
		c0.36-0.24,0.72-0.42,1.08-0.6c-0.06-0.18-0.06-0.42-0.06-0.66c0.06-0.72,0.479-1.38,1.08-1.68
		c4.261-2.281,8.821-3.601,13.143-4.741c0.48-0.18,0.96-0.3,1.38-0.36h0.061l0.6-0.12c2.341-0.48,4.682-0.96,7.142-1.14
		c0.601-0.06,1.2-0.06,1.801-0.06l0.12,0.96c0.66-0.18,1.32-0.36,1.98-0.54l0.78-0.24l0.42,0.12c0.48,0.06,0.96,0.18,1.38,0.3
		s0.78,0.24,1.141,0.42l0.24,0.12l0.24,0.12c0.359,0.3,0.72,0.6,1.02,0.9l0.36,0.36l0.18,0.42c0.54,1.621,0.721,3.181,0.421,4.621
		l-0.181,1.14l-1.08,0.36c-0.24,0.06-0.48,0.12-0.72,0.18c0,0.36,0,0.72-0.061,1.081c0.66,0.36,1.381,0.9,1.921,1.86
		c0.12,0.18,0.18,0.36,0.3,0.6c0,0.06,0.06,0.18,0.12,0.24c0.72,0.6,1.2,1.44,1.44,2.46c0.359,1.8-0.54,3.781-2.161,4.801
		c0,0.06,0,0.06-0.06,0.12c2.28,0.42,5.161,2.4,5.641,9.482C202.233,41.738,201.693,43.058,200.674,44.078z M200.253,40.478
		c-0.239-3.421-1.38-8.702-6.001-7.742c-0.66,0.18-1.26,0.48-1.92,0.66c-0.78,0.24-1.561,0.48-2.341,0.72
		c-1.44,0.48-2.881,1.02-4.321,1.561c-0.899,0.3-1.8,0.66-2.7,1.02c-1.74,0.66-3.421,1.32-5.102,1.98
		c-1.32,0.54-2.641,1.08-3.96,1.68c-0.061,0.06-0.12,0.06-0.181,0.12c0-0.12,0-0.18,0-0.24c-0.12-1.32-0.24-2.581-0.36-3.901
		c1.681-0.84,3.301-1.68,5.041-2.4c2.821-1.2,5.642-2.1,8.522-2.88c1.44-0.36,2.94-0.66,4.381-0.9c1.38-0.3,2.7-0.24,3.961-0.84
		c1.08-0.54,1.8-1.86,1.561-3c-0.12-0.6-0.48-1.2-1.021-1.5c-0.061,0-0.061,0-0.12-0.06c-0.06-0.24-0.18-0.48-0.3-0.72
		c-0.061-0.12-0.12-0.3-0.24-0.48c-0.84-1.44-2.28-1.5-3.781-1.44c-0.72,0.06-1.38,0.12-2.1,0.24c-0.24,0.06-0.541,0.12-0.78,0.18
		c-1.921,0.54-3.901,1.08-5.821,1.561c-3.421,1.26-6.722,2.7-10.082,4.141c0-0.3-0.36-2.46-0.421-3.061c0,0,0.061-0.06,0.12-0.12
		c1.86-0.78,3.781-1.5,5.701-2.161c0.66-0.3,6.602-2.1,9.662-2.94c0.12,0,0.24-0.06,0.36-0.12c1.38-0.36,2.761-0.78,4.081-1.2
		c1.02-0.3,2.04-0.6,3-0.9c0.24-1.201,0.061-2.461-0.359-3.721c-0.301-0.24-0.66-0.54-0.961-0.78c-0.3-0.12-0.6-0.24-0.96-0.36
		c-0.359-0.12-0.78-0.18-1.2-0.24c-3.12,0.84-6.241,1.68-9.422,2.4c-4.081,0.84-8.162,1.74-12.123,3.121
		c-1.26,0.42-2.58,0.9-3.84,1.44c-0.061,0.18-0.181,0.36-0.24,0.48c-0.841,0.72-1.381,1.62-1.501,2.82
		c-0.12,1.021,0.24,2.161,0.961,2.941l0.72,6.841c0.24,2.4,0.48,4.801,0.72,7.202c0.181,2.101,0.301,4.261,0.66,6.301
		c-0.54,1.561,0.48,3.361,1.98,3.961c-0.06,0.3-0.06,0.54,0.061,0.84c0.479,1.02,1.561,1.08,2.521,0.9c0.24,0,0.6-0.06,0.6-0.06
		c-0.06,0.06,3.361-0.96,4.081-1.44l0.061-0.06c0.66-0.3,1.32-0.541,1.98-0.84c0.12-0.06,0.3-0.12,0.42-0.18c0,0,0,0,0.06,0
		c1.98-0.84,4.021-1.56,6.062-2.28c4.261-1.5,8.702-2.641,13.143-3.481c0.36-0.06,0.54-0.3,0.601-0.6
		C199.833,42.398,200.313,41.558,200.253,40.478z M165.446,18.873c1.32-0.6,2.641-1.14,4.021-1.561
		c3.961-1.38,8.042-2.28,12.123-3.181c2.34-0.54,4.74-1.14,7.081-1.74c-0.54,0-1.08,0-1.62,0.06c-2.581,0.18-5.041,0.66-7.502,1.14
		c-0.48,0.12-0.9,0.24-1.38,0.36c-4.321,1.141-8.762,2.461-12.723,4.561C165.326,18.633,165.326,18.813,165.446,18.873z
		 M174.808,49.779c1.141-0.36,2.221-0.78,3.301-1.2v0.12c-0.9,0.48-1.8,0.96-2.761,1.44c-0.42,0.24-0.899,0.48-1.38,0.72
		c-0.06,0.06-0.12,0.06-0.18,0.06c-0.181,0.06-1.561,0.18-2.461,0.06C172.527,50.68,173.668,50.2,174.808,49.779z M184.65,30.396
		c-0.36,0.12-0.66,0.24-1.021,0.42c-3.001,1.2-6.121,2.34-9.062,3.841c0.48-0.42,0.841-1.02,0.961-1.68
		c1.14-0.3,2.28-0.66,3.48-1.021c1.86-0.6,3.721-1.14,5.581-1.74L184.65,30.396z"/>
	<path style="fill:#EFEFEF;" d="M247.12,51.76c-0.359,0.66-0.899,1.2-1.5,1.62c-0.18,0.48-0.36,0.9-0.601,1.32
		c-0.96,1.621-2.76,2.701-4.501,2.701c-0.96,0-1.92-0.3-2.64-0.96c-1.98-0.601-3.421-2.461-3.421-4.562
		c-0.061-0.54-0.061-1.08-0.061-1.62c-0.18-3.661-0.66-7.502-1.62-11.643c-0.84,3.361-1.62,6.721-2.28,10.082
		c-0.061,0.24-0.181,0.48-0.3,0.66c-0.061,0.48-0.181,0.9-0.301,1.32c-0.42,1.26-1.08,2.16-2.04,2.7c0,0.061-0.061,0.181-0.061,0.24
		c-0.54,1.681-1.5,2.701-2.94,3.061c-0.3,0.061-0.54,0.061-0.78,0.061c-0.3,0-0.6-0.061-0.899-0.12c-0.24,0-0.48-0.061-0.721-0.18
		c-0.78-0.061-1.44-0.421-1.86-1.081c-0.48-0.78-0.78-1.56-0.96-2.28c-0.24,0.181-0.48,0.36-0.78,0.54
		c-0.36,1.32-1.08,2.521-2.7,3.241c-0.36,0.18-0.78,0.3-1.201,0.3c-0.54,0-0.96-0.18-1.38-0.42c-1.08,0-2.04-0.36-2.761-1.08
		c-1.44-1.381-1.68-3.421-1.86-4.921c-0.06-0.18-0.06-0.3-0.06-0.48c-0.48-3.361-0.78-6.782-0.841-10.502c0-0.78,0-1.56-0.06-2.34
		c-0.061-2.761-0.12-5.581-0.12-8.402c0-0.6,0-1.2,0-1.86c-0.06-2.941-0.12-5.941,0.42-8.882c0.181-0.96,0.96-1.681,1.921-1.8
		c0-0.36,0.06-0.78,0.18-1.141c0.18-1.08,1.08-1.8,2.221-1.8c0.06,0,0.06,0,0.12,0c0.359-0.6,0.84-1.08,1.44-1.38
		c0.899-0.54,1.86-0.84,2.88-0.84c0.48,0,1.021,0.06,1.561,0.24c1.32,0.24,2.521,1.081,3.241,2.221l1.08,2.22
		c0.06,0.24,0.12,0.54,0.18,0.84c0.12,1.08,0.3,2.161,0.48,3.361c0.06,0.3,0.12,0.66,0.18,1.02c0.42,2.46,0.84,4.861,1.261,7.202
		c0.779-3.481,1.62-7.021,2.1-10.562c0.181-1.2,1.081-2.16,2.041-2.641c0.06-0.12,0.06-0.18,0.06-0.3
		c0.24-1.5,1.561-2.641,2.821-2.94c0.479-0.12,1.02-0.18,1.56-0.18c0.48,0,0.961,0.06,1.44,0.18c0.48-0.18,1.021-0.3,1.561-0.3
		c1.08,0,2.101,0.42,2.82,1.2c1.86,1.92,3.121,4.441,3.901,7.622c0.66,2.701,1.2,5.401,1.68,8.222c0.12,0.9,0.301,1.86,0.48,3.061
		c0.18,0.9,0.36,1.74,0.54,2.64c0.24,1.201,0.48,2.341,0.721,3.541c0.18,0.78,0.3,1.561,0.479,2.34c0.061,0.36,0.12,0.78,0.24,1.14
		c0.3,1.38,0.601,2.821,0.72,4.261C248.44,48.099,248.081,50.14,247.12,51.76z M246.34,45.879c-0.18-1.741-0.6-3.481-0.96-5.221
		c-0.42-1.98-0.78-3.901-1.14-5.881c-0.181-0.84-0.36-1.74-0.601-2.641c-0.12-1.02-0.3-2.101-0.48-3.121
		c-0.479-2.701-0.96-5.401-1.62-8.102c-0.6-2.461-1.62-4.861-3.48-6.722c-0.721-0.78-2.041-0.78-2.881-0.12
		c-0.72-0.42-1.62-0.54-2.641-0.24c-0.66,0.12-1.32,0.72-1.44,1.32c-0.72,5.221-2.04,10.382-3.181,15.543
		c-0.78,3.361-1.5,6.722-2.28,10.083c-1.38-6.062-2.7-13.083-3.721-19.264c-0.24-1.5-0.54-3.001-0.66-4.441
		c-0.06-0.6-0.3-1.201-0.66-1.621c-0.42-1.08-1.32-1.86-2.461-2.101c-0.96-0.3-2.04-0.18-3,0.42c-0.721,0.42-1.021,1.02-1.021,1.62
		c-0.54,1.14-0.48,2.46-0.42,3.661c0,1.44,0.06,2.821,0.06,4.261v1.38c-0.12,0-0.18-1.32-0.3-1.32
		c-0.06-2.581-0.12-5.341-0.48-7.742c-0.06-0.3-0.659-0.3-0.72,0c-0.66,3.42-0.42,7.021-0.36,10.442
		c0,3.541,0.061,7.142,0.181,10.683c0.06,3.48,0.3,6.841,0.78,10.322c0.18,1.44,0.3,3.241,1.38,4.321
		c0.54,0.54,1.38,0.66,2.101,0.42c0.06,0.12,0.12,0.18,0.18,0.24c0.24,0.301,0.66,0.301,1.021,0.12
		c1.92-0.84,1.74-3.061,1.681-4.801c-0.12-5.041-0.301-10.322-0.54-15.363c0.119,0.54,0.3,1.021,0.479,1.5
		c0.48,1.98,1.021,4.021,1.561,6.001l2.58,9.182c0.24,0.96,0.48,1.86,1.021,2.701c0.12,0.24,0.36,0.3,0.54,0.18
		c0.24,0.18,0.54,0.24,0.841,0.24c0.18,0.12,0.479,0.12,0.779,0.06c0.961-0.24,1.32-0.9,1.621-1.74c0.18-0.6,0.3-1.2,0.42-1.8
		c-0.061,0.18,0.18,0.24,0.24,0c0.479-2.521,1.32-6.242,2.101-9.542c0.84-3.361,2.34-8.582,3.78-12.783
		c0.54,2.521,1.08,5.041,1.681,7.562c1.32,5.221,1.98,10.022,2.101,15.303c0,1.44,1.08,2.641,2.46,2.94
		c1.501,1.5,3.721,0.541,4.621-1.02C246.34,49.299,246.46,47.559,246.34,45.879z M220.175,20.433c0.54,3.061,1.32,7.442,1.92,10.502
		c-0.359-0.36-0.42-0.78-0.66-1.38c0-0.12-0.06-0.24-0.12-0.3c-0.779-3.721-1.62-7.322-2.521-10.982
		c0.061-0.12,0.061-0.18,0.061-0.24c0.3-0.06,0.6-0.18,0.84-0.36C219.935,18.633,220.055,19.533,220.175,20.433z M234.157,23.854
		c0.12,0.42,0.181,0.84,0.301,1.2c-1.501,4.501-2.821,9.062-3.901,13.623h-0.06c-0.061,0-0.12,0-0.181-0.06
		c0.181-0.9,0.36-1.8,0.48-2.701C231.757,31.836,232.837,27.815,234.157,23.854z"/>
	<path style="fill:#EFEFEF;" d="M282.227,44.078c-0.181,0.36-0.48,0.72-0.841,0.9c-0.24,0.78-0.66,1.44-1.26,2.041
		c-0.36,0.66-1.021,1.14-1.801,1.32c-4.561,0.9-8.882,2.041-12.902,3.42c-1.86,0.66-3.841,1.381-5.821,2.16
		c-0.12,0.061-0.24,0.12-0.36,0.12l-0.24,0.12c-0.54,0.24-1.08,0.48-1.74,0.721c-0.78,0.54-1.681,0.96-2.881,1.32
		c-0.479,0.18-1.08,0.42-1.8,0.54l-0.181,0.06h-0.18c-0.18,0-0.3,0-0.48-0.06c-0.3,0.06-0.6,0.06-0.899,0.06
		c-1.621,0-2.881-0.78-3.541-2.101c-0.061-0.12-0.12-0.3-0.18-0.479c-0.66-0.48-1.201-1.141-1.561-1.86
		c-0.54-1.081-0.721-2.221-0.54-3.301c-0.181-1.38-0.301-2.761-0.421-4.141c-0.06-0.6-0.119-1.26-0.18-1.92l-1.32-13.503
		c-0.78-1.08-1.2-2.46-1.08-3.841c0.12-1.14,0.54-2.101,1.141-3c-0.181-0.36-0.301-0.72-0.24-1.14c0.06-0.72,0.479-1.38,1.08-1.681
		c0.36-0.24,0.72-0.42,1.08-0.6c-0.06-0.18-0.06-0.42-0.06-0.66c0.06-0.72,0.479-1.38,1.08-1.68
		c4.261-2.281,8.821-3.601,13.143-4.741c0.48-0.18,0.96-0.3,1.38-0.36h0.061l0.6-0.12c2.341-0.48,4.682-0.96,7.142-1.14
		c0.601-0.06,1.2-0.06,1.801-0.06l0.12,0.96c0.66-0.18,1.32-0.36,1.98-0.54l0.78-0.24l0.42,0.12c0.48,0.06,0.96,0.18,1.38,0.3
		s0.78,0.24,1.141,0.42l0.24,0.12l0.24,0.12c0.359,0.3,0.72,0.6,1.02,0.9l0.36,0.36l0.18,0.42c0.54,1.621,0.721,3.181,0.421,4.621
		l-0.181,1.14l-1.08,0.36c-0.24,0.06-0.48,0.12-0.72,0.18c0,0.36,0,0.72-0.061,1.081c0.66,0.36,1.381,0.9,1.921,1.86
		c0.12,0.18,0.18,0.36,0.3,0.6c0,0.06,0.06,0.18,0.12,0.24c0.72,0.6,1.2,1.44,1.44,2.46c0.359,1.8-0.54,3.781-2.161,4.801
		c0,0.06,0,0.06-0.06,0.12c2.28,0.42,5.161,2.4,5.641,9.482C283.786,41.738,283.246,43.058,282.227,44.078z M281.806,40.478
		c-0.239-3.421-1.38-8.702-6.001-7.742c-0.66,0.18-1.26,0.48-1.92,0.66c-0.78,0.24-1.561,0.48-2.341,0.72
		c-1.44,0.48-2.881,1.02-4.321,1.561c-0.899,0.3-1.8,0.66-2.7,1.02c-1.74,0.66-3.421,1.32-5.102,1.98
		c-1.32,0.54-2.641,1.08-3.96,1.68c-0.061,0.06-0.12,0.06-0.181,0.12c0-0.12,0-0.18,0-0.24c-0.12-1.32-0.24-2.581-0.36-3.901
		c1.681-0.84,3.301-1.68,5.041-2.4c2.821-1.2,5.642-2.1,8.522-2.88c1.44-0.36,2.94-0.66,4.381-0.9c1.38-0.3,2.7-0.24,3.961-0.84
		c1.08-0.54,1.8-1.86,1.561-3c-0.12-0.6-0.48-1.2-1.021-1.5c-0.061,0-0.061,0-0.12-0.06c-0.06-0.24-0.18-0.48-0.3-0.72
		c-0.061-0.12-0.12-0.3-0.24-0.48c-0.84-1.44-2.28-1.5-3.781-1.44c-0.72,0.06-1.38,0.12-2.1,0.24c-0.24,0.06-0.541,0.12-0.78,0.18
		c-1.921,0.54-3.901,1.08-5.821,1.561c-3.421,1.26-6.722,2.7-10.082,4.141c0-0.3-0.36-2.46-0.421-3.061c0,0,0.061-0.06,0.12-0.12
		c1.86-0.78,3.781-1.5,5.701-2.161c0.66-0.3,6.602-2.1,9.662-2.94c0.12,0,0.24-0.06,0.36-0.12c1.38-0.36,2.761-0.78,4.081-1.2
		c1.02-0.3,2.04-0.6,3-0.9c0.24-1.201,0.061-2.461-0.359-3.721c-0.301-0.24-0.66-0.54-0.961-0.78c-0.3-0.12-0.6-0.24-0.96-0.36
		c-0.359-0.12-0.78-0.18-1.2-0.24c-3.12,0.84-6.241,1.68-9.422,2.4c-4.081,0.84-8.162,1.74-12.123,3.121
		c-1.26,0.42-2.58,0.9-3.84,1.44c-0.061,0.18-0.181,0.36-0.24,0.48c-0.841,0.72-1.381,1.62-1.501,2.82
		c-0.12,1.021,0.24,2.161,0.961,2.941l0.72,6.841c0.24,2.4,0.48,4.801,0.72,7.202c0.181,2.101,0.301,4.261,0.66,6.301
		c-0.54,1.561,0.48,3.361,1.98,3.961c-0.06,0.3-0.06,0.54,0.061,0.84c0.479,1.02,1.561,1.08,2.521,0.9c0.24,0,0.6-0.06,0.6-0.06
		c-0.06,0.06,3.361-0.96,4.081-1.44l0.061-0.06c0.66-0.3,1.32-0.541,1.98-0.84c0.12-0.06,0.3-0.12,0.42-0.18c0,0,0,0,0.06,0
		c1.98-0.84,4.021-1.56,6.062-2.28c4.261-1.5,8.702-2.641,13.143-3.481c0.36-0.06,0.54-0.3,0.601-0.6
		C281.386,42.398,281.866,41.558,281.806,40.478z M246.999,18.873c1.32-0.6,2.641-1.14,4.021-1.561
		c3.961-1.38,8.042-2.28,12.123-3.181c2.34-0.54,4.74-1.14,7.081-1.74c-0.54,0-1.08,0-1.62,0.06c-2.581,0.18-5.041,0.66-7.502,1.14
		c-0.48,0.12-0.9,0.24-1.38,0.36c-4.321,1.141-8.762,2.461-12.723,4.561C246.879,18.633,246.879,18.813,246.999,18.873z
		 M256.36,49.779c1.141-0.36,2.221-0.78,3.301-1.2v0.12c-0.9,0.48-1.8,0.96-2.761,1.44c-0.42,0.24-0.899,0.48-1.38,0.72
		c-0.06,0.06-0.12,0.06-0.18,0.06c-0.181,0.06-1.561,0.18-2.461,0.06C254.08,50.68,255.221,50.2,256.36,49.779z M266.203,30.396
		c-0.36,0.12-0.66,0.24-1.021,0.42c-3.001,1.2-6.121,2.34-9.062,3.841c0.48-0.42,0.841-1.02,0.961-1.68
		c1.14-0.3,2.28-0.66,3.48-1.021c1.86-0.6,3.721-1.14,5.581-1.74L266.203,30.396z"/>
	<path style="fill:#EFEFEF;" d="M329.153,29.375c-0.06,0.42-0.12,0.84-0.12,1.2c-0.18,1.38-1.08,2.581-2.16,3.241
		c-0.42,1.92-2.161,3.481-3.961,3.481c-0.061,0-0.181,0-0.24,0c-0.3-0.06-0.54-0.06-0.84-0.06c0.18,0.36,0.42,0.78,0.6,1.14
		c0.12,0.24,0.24,0.54,0.36,0.78c1.681,3.421,3.601,7.262,3.061,11.402c-0.18,1.32-0.96,2.28-2.101,2.761c0,0.06,0,0.12,0,0.18
		c-0.24,1.801-1.681,3.061-3.541,3.061c-0.359,0-0.779-0.06-1.14-0.18c-0.12,0-0.24,0-0.3,0c-0.36,0-0.721-0.06-1.081-0.12
		c-0.239,0.061-0.42,0.061-0.66,0.061c-0.359,0-0.72-0.061-1.08-0.24l-0.66-0.3l-0.24-0.721c-0.96-2.521-2.1-5.161-3.48-8.282
		c-0.66-1.56-1.86-4.681-1.86-4.681c-0.18-0.3-0.3-0.6-0.479-0.9c0.06,0.24,0.06,0.48,0.06,0.72c0,1.32-0.601,4.081-0.96,5.881
		c0,0.9-0.061,1.68-0.12,2.28l-0.24,0.48c-0.48,0.9-1.08,1.681-1.801,2.341c-0.06,0-0.06,0-0.06,0v0.12l-0.24,0.479
		c-0.479,0.9-1.08,1.681-1.8,2.341c-0.78,0.601-1.681,0.96-2.641,0.96c-1.081,0-2.041-0.479-2.761-1.32
		c-0.12-0.18-0.24-0.359-0.36-0.6c-0.84-0.42-1.44-1.261-1.5-2.28c-0.181-0.841-0.24-1.741-0.24-2.581c0-0.48-0.061-1.02-0.12-1.44
		c-0.12-1.14-0.3-2.4-0.54-3.901c-0.48-3.241-0.36-7.501-2.641-10.082c-1.561-1.8-3.781-3.361-3.001-6.121
		c0.301-1.14,1.021-2.041,1.98-2.521c0.061-0.12,0.061-0.24,0.12-0.42c0-0.12,0.061-0.18,0.061-0.3c-0.24-1.26-0.48-2.4-0.721-3.541
		l-0.3-1.14l0.84-0.66c-0.9-1.5-1.08-3.301-0.3-4.801c0.3-0.6,0.84-1.32,1.681-1.801c0.12-0.42,0.24-0.78,0.42-1.14
		c0.54-1.2,1.92-2.581,4.98-2.581c1.261,0,2.521,0.24,3.481,0.42l0.24,0.06c0.42,0.06,0.779,0.18,1.14,0.42
		c0.3,0.12,0.66,0.24,1.021,0.36c0.06,0.06,0.06,0.06,0.12,0.06c6.841,2.161,12.963,6.361,18.904,10.382
		c0.6,0.42,1.08,1.02,1.38,1.74c0.6,0.48,1.26,0.96,1.98,1.5C328.793,25.594,329.453,27.335,329.153,29.375z M326.152,26.015
		c-0.78-0.6-1.62-1.26-2.46-1.86c-0.12-0.48-0.36-0.96-0.841-1.32c-5.881-3.961-11.822-8.042-18.424-10.143
		c-0.06,0-0.12-0.06-0.18-0.06c-0.42-0.18-0.84-0.3-1.261-0.48c-0.12-0.12-0.3-0.24-0.54-0.24c-1.98-0.36-5.581-1.141-6.721,1.08
		c-0.66,1.38,0,3.061,1.14,4.021c-0.36,0.54-0.78,0.96-1.26,1.32c0.479,2.04,0.899,4.141,1.32,6.181c-0.36,0-0.721,0-1.081,0.06
		c-1.8,0-2.521,3-0.84,4.081c0.54,0.36,1.2,0.72,1.801,0.96c-0.48,0.06-0.9,0.12-1.381,0.18c0.66,0.24,1.32,0.48,1.98,0.66
		c0.24,0.06,0.36,0.24,0.36,0.42c0.12,0,0.24,0,0.36,0c0.12,0.72,0.24,1.38,0.359,2.101c0.48,2.82,0.961,5.641,1.44,8.461
		c0.181,1.32,0.36,2.641,0.54,3.961c0.12,1.32,0,2.761,0.301,4.021c0,0.66,0.6,1.08,1.08,0.96c0.06,0.36,0.18,0.66,0.359,0.96
		c0.721,0.84,1.921,0.78,2.701,0.12c0.6-0.48,1.021-1.08,1.38-1.8c0-0.3,0-0.66-0.06-1.021c0.18-2.94-0.12-6.001-0.3-8.942
		c-0.12-2.76-0.36-5.521-0.66-8.222c1.56,0.06,3.181,0.18,4.74,0.24c0.301,0.54,0.66,1.14,1.021,1.68v0.06
		c0.36,0.6,0.66,1.2,0.96,1.86c1.141,2.221,2.761,6.181,3.421,7.742c1.2,2.761,2.4,5.581,3.48,8.402c0.24,0.12,0.601,0,0.78-0.18
		c0,0.06,0.061,0.06,0.12,0.06c0.54,0.24,1.08,0.24,1.621,0.18c1.02,0.42,2.4,0.12,2.58-1.2c0.48-3.901-1.62-7.682-3.24-11.103
		c-1.261-2.581-2.701-5.041-4.321-7.441c2.82,0.24,5.641,0.48,8.462,0.66c0.96,0.12,2.101-0.9,2.221-2.041
		c0.06-0.42,0.119-0.84,0.18-1.26C327.473,27.815,327.113,26.734,326.152,26.015z M302.748,18.993
		c5.161,1.2,9.962,3.781,14.583,6.961c-1.921-0.24-3.901-0.48-5.821-0.72c-1.381-1.14-3.361-2.761-5.161-1.621
		c-0.3,0.24-0.48,0.6-0.54,0.9c-0.301-0.06-0.66-0.06-0.961-0.12c-0.239-1.26-0.54-2.521-0.84-3.781c-0.06-0.54-0.66-0.54-0.96-0.24
		c-0.061-0.12-0.061-0.3-0.12-0.42C302.867,19.653,302.808,19.293,302.748,18.993z M307.729,42.758c-0.3-3.601-0.6-7.201-1.2-10.682
		c-0.06,0-0.36,0-0.479,0c0.72,4.921,0.899,9.902,1.14,14.883C307.429,45.519,307.909,44.918,307.729,42.758z"/>
	<path style="fill:#EFEFEF;" d="M351.416,37.657c-0.36,3.721-1.021,7.562-3.181,10.683c-0.421,0.6-0.841,1.14-1.32,1.62
		c-0.24,0.48-0.48,0.9-0.78,1.32c-0.78,1.14-1.621,2.041-2.521,2.821c-1.501,1.44-3.301,2.341-5.222,2.58
		c-0.36,0.061-0.78,0.12-1.2,0.12c-0.3,0-0.66-0.06-0.96-0.06c-0.36,0.06-0.721,0.06-1.141,0.06c-2.04,0-4.261-0.84-5.941-2.221
		c-2.76-2.34-4.501-5.821-5.28-10.682c-1.32-8.462,0.119-16.864,4.141-23.585c0.72-1.741,1.62-3.301,2.641-4.621
		c0.12-0.24,0.3-0.36,0.479-0.48c0.48-0.9,1.021-1.74,1.621-2.46c0.359-0.54,0.96-0.78,1.56-0.78c0.301,0,0.601,0.06,0.9,0.18
		c0.54-0.36,1.08-0.6,1.681-0.72c0.96-0.36,1.92-0.6,2.761-0.6c0.42-0.06,0.84-0.06,1.2-0.06c0.96,0,1.8,0.18,2.521,0.6
		c0.78,0.48,1.38,1.201,1.92,1.98c0.841,0.18,1.561,0.72,1.98,1.5c0.841,1.621,1.74,3.481,2.4,5.401c0.48,1.62,0.9,3.48,1.261,5.761
		C351.596,30.275,351.775,34.056,351.416,37.657z M349.075,26.254c-0.3-1.8-0.66-3.661-1.2-5.461
		c-0.601-1.741-1.44-3.421-2.28-5.041c-0.301-0.541-0.9-0.66-1.381-0.48c-0.42-0.78-1.021-1.8-1.8-2.28
		c-0.721-0.42-1.741-0.42-2.581-0.24c-0.78-0.06-1.561,0.18-2.341,0.48c-1.92,0.42-3.36,2.28-4.381,4.501c-0.12,0-0.3-0.06-0.479,0
		c0.24-0.66,0.479-1.32,0.78-1.98c0.239-0.6,0.6-1.201,0.96-1.801c0.06-0.12-0.061-0.18-0.12-0.06c-1.021,1.32-1.801,2.76-2.4,4.321
		c-0.061,0.06-0.061,0.12-0.12,0.12c-4.021,6.721-5.102,14.643-3.901,22.325c0.601,3.541,1.801,7.142,4.621,9.542
		c1.621,1.32,3.841,2.041,5.821,1.68c0.66,0.06,1.32,0.06,1.98,0c1.681-0.24,3.061-1.02,4.201-2.16
		c0.84-0.72,1.561-1.561,2.221-2.461c1.98-2.82,2.521-6.481,2.82-9.782C349.915,33.696,349.675,29.975,349.075,26.254z
		 M342.054,25.955c0.479,2.94,0.66,6.001,0.9,9.002c0,2.94-0.36,5.941-1.381,8.762c-0.18,0.72-0.479,1.38-0.84,2.041
		s-0.9,1.2-1.62,1.44c-2.581,0.78-4.682-1.681-5.642-3.661c0-0.06,0-0.06-0.06-0.06c0.6,0.42,1.439,0.6,2.16,0.42
		c0.24-0.06,0.48-0.18,0.66-0.3c-0.9-3.901-1.381-7.981-1.2-12.062c0.12-1.38,0.24-2.761,0.479-4.141
		c0.061-0.06,0.061-0.12,0.12-0.24c0.48-2.46,1.261-4.921,2.4-7.142c0.24-0.42,0.48-0.9,0.841-1.14
		c-3.421,7.201-3.541,16.023-1.86,23.825c0.3-0.541,0.36-1.141,0.24-1.801c-0.721-4.441-0.78-9.062-0.24-13.503
		c0.3-2.28,0.84-4.501,1.5-6.661c0.18-0.6,0.42-1.38,0.78-2.041c0.12,0,0.18,0,0.3,0c0.061,0,0.181,0.06,0.24,0.12
		c0.24,0.42,0.42,0.9,0.601,1.32c0.42,1.02,0.779,2.1,1.14,3.181C341.754,24.154,341.873,25.054,342.054,25.955z M340.613,34.896
		c0-3.721-0.18-7.562-0.9-11.163c0,0,0-0.06,0-0.12c-0.42,1.44-0.66,2.761-0.84,4.021c-0.54,4.441-0.48,8.822,0.24,12.903
		c0.18,1.08,0.06,2.161-0.421,3l-0.899,1.86c0.06,0.06,0.18,0.06,0.3,0.06s0.3,0,0.42-0.06c0.061-0.06,0.3-0.12,0.601-0.54
		c0.239-0.6,0.479-1.14,0.72-1.74C340.733,40.478,340.673,37.717,340.613,34.896z"/>
	<path style="fill:#EFEFEF;" d="M379.441,48.879c-0.421,0.66-0.961,1.26-1.621,1.62c-0.12,0.42-0.24,0.9-0.479,1.32
		c-0.54,0.9-1.381,1.621-2.281,1.92c-0.3,1.021-1.26,1.74-2.4,1.74c-0.06,0-0.06,0-0.12,0c-5.28-0.359-10.562-0.359-15.783,0.42
		c-0.9,0.181-1.86,0.301-2.881,0.301c-0.359,0-0.66,0-1.02-0.061c-0.301-0.06-0.601-0.18-0.9-0.359
		c-0.9-0.12-1.801-0.601-2.461-1.32c-0.779-0.841-1.2-1.86-1.14-3.001l0.06-0.18c0.12-2.28,0.12-4.621,0.061-6.901
		c-0.301-9.062-1.74-17.944-2.341-26.946c-0.06-1.32,0.36-2.46,1.141-3.361c0.3-0.3,0.66-0.6,1.02-0.78
		c0.181-0.84,0.54-1.56,1.08-2.16c0.9-0.9,2.221-1.44,3.602-1.44c0.3,0,0.6,0,0.899,0.06c0.66,0.06,1.381,0.3,2.041,0.6
		c1.14,0.24,2.16-0.18,3.12,0.72c2.881,2.701,2.221,8.762,2.581,12.363c0.42,4.981,0.84,10.022,1.021,15.063c0,0.3,0,0.6,0,0.96
		l0.359-0.06v0.3c0-0.48,6.782-0.66,7.502-0.72c2.16-0.06,4.681-0.24,6.541,1.141c1.32,1.02,2.041,2.16,2.041,3.48
		c0,0.18,0,0.36,0,0.54c0.12,0.12,0.24,0.3,0.3,0.42C380.161,45.819,380.161,47.499,379.441,48.879z M377.82,45.579
		c-0.24-0.36-0.479-0.66-0.72-0.96c0.06-0.3,0.12-0.66,0.12-0.96c0-0.9-0.66-1.561-1.32-2.041c-0.721-0.54-1.74-0.66-2.641-0.72
		c-1.141-0.06-2.341,0-3.541,0c-2.94,0.06-5.941,0.42-8.762,1.141c0-0.12,0.06-0.18,0.06-0.36c0,0,0-0.06,0-0.12
		c-0.06,0.06-0.12,0.06-0.12,0.06c-0.06-1.02-0.119-2.041-0.18-3.061c-0.12-3.181-0.3-6.361-0.54-9.542
		c-0.24-3-0.48-6.062-0.78-9.122c-0.3-2.521-0.36-5.401-1.98-7.501c-0.06-0.18-0.3-0.06-0.24,0.12c0.66,1.2,0.841,2.521,0.9,3.841
		c0.061,1.02,0.181,3.241,0.12,4.681l-0.3-1.74c-0.3-2.161-0.66-4.321-1.08-6.481c-0.48-0.36-1.021-0.54-1.561-0.66
		c-0.48-0.24-1.08-0.48-1.681-0.54c-1.86-0.3-3.601,0.78-3.421,2.761c0.36,5.641,0.961,11.282,1.501,16.983
		c0.3,2.821,0.6,5.701,0.96,8.522c-0.061,2.34-0.061,4.681-0.18,7.021c0,0.6-0.061,1.14-0.061,1.74
		c-0.12,1.561,1.561,2.701,3.001,2.341c6.661-1.801,13.562-2.401,20.404-1.92C377.521,49.239,378.661,47.019,377.82,45.579z
		 M352.135,12.872c0.301-0.12,0.66-0.18,0.9-0.18c-0.12,0.18-0.24,0.42-0.3,0.6c-0.061,0.72-0.12,1.38-0.181,2.041
		c-0.479,1.561-0.18,3.661-0.119,5.101c0.06,2.941,0.119,5.881,0.18,8.822c0,1.08,0,2.22,0,3.3c-0.3-4.261-0.54-8.521-0.9-12.843
		c-0.12-1.08-0.18-2.22-0.3-3.3C351.354,15.272,350.755,13.412,352.135,12.872z M374.76,50.2c-3.421-0.06-6.842,0.06-10.262,0.36
		c-1.501,0.12-3.001,0.3-4.562,0.48c-1.561,0.24-3.36,0.36-4.741,1.02c-0.06,0.061-0.06,0.12,0,0.12
		c1.561,0.181,3.301-0.3,4.861-0.42c1.62-0.18,3.241-0.3,4.861-0.36c3.301-0.18,6.541-0.12,9.842,0.12
		C375.54,51.58,375.54,50.26,374.76,50.2z"/>
	<path style="fill:#EFEFEF;" d="M406.385,48.879c-0.421,0.66-0.961,1.26-1.621,1.62c-0.12,0.42-0.24,0.9-0.479,1.32
		c-0.54,0.9-1.381,1.621-2.281,1.92c-0.3,1.021-1.26,1.74-2.4,1.74c-0.06,0-0.06,0-0.12,0c-5.28-0.359-10.562-0.359-15.783,0.42
		c-0.9,0.181-1.86,0.301-2.881,0.301c-0.359,0-0.66,0-1.02-0.061c-0.301-0.06-0.601-0.18-0.9-0.359
		c-0.9-0.12-1.801-0.601-2.461-1.32c-0.779-0.841-1.2-1.86-1.14-3.001l0.06-0.18c0.12-2.28,0.12-4.621,0.061-6.901
		c-0.301-9.062-1.74-17.944-2.341-26.946c-0.06-1.32,0.36-2.46,1.141-3.361c0.3-0.3,0.66-0.6,1.02-0.78
		c0.181-0.84,0.54-1.56,1.08-2.16c0.9-0.9,2.221-1.44,3.602-1.44c0.3,0,0.6,0,0.899,0.06c0.66,0.06,1.381,0.3,2.041,0.6
		c1.14,0.24,2.16-0.18,3.12,0.72c2.881,2.701,2.221,8.762,2.581,12.363c0.42,4.981,0.84,10.022,1.021,15.063c0,0.3,0,0.6,0,0.96
		l0.359-0.06v0.3c0-0.48,6.782-0.66,7.502-0.72c2.16-0.06,4.681-0.24,6.541,1.141c1.32,1.02,2.041,2.16,2.041,3.48
		c0,0.18,0,0.36,0,0.54c0.12,0.12,0.24,0.3,0.3,0.42C407.104,45.819,407.104,47.499,406.385,48.879z M404.764,45.579
		c-0.24-0.36-0.479-0.66-0.72-0.96c0.06-0.3,0.12-0.66,0.12-0.96c0-0.9-0.66-1.561-1.32-2.041c-0.721-0.54-1.74-0.66-2.641-0.72
		c-1.141-0.06-2.341,0-3.541,0c-2.94,0.06-5.941,0.42-8.762,1.141c0-0.12,0.06-0.18,0.06-0.36c0,0,0-0.06,0-0.12
		c-0.06,0.06-0.12,0.06-0.12,0.06c-0.06-1.02-0.119-2.041-0.18-3.061c-0.12-3.181-0.3-6.361-0.54-9.542
		c-0.24-3-0.48-6.062-0.78-9.122c-0.3-2.521-0.36-5.401-1.98-7.501c-0.06-0.18-0.3-0.06-0.24,0.12c0.66,1.2,0.841,2.521,0.9,3.841
		c0.061,1.02,0.181,3.241,0.12,4.681l-0.3-1.74c-0.3-2.161-0.66-4.321-1.08-6.481c-0.48-0.36-1.021-0.54-1.561-0.66
		c-0.48-0.24-1.08-0.48-1.681-0.54c-1.86-0.3-3.601,0.78-3.421,2.761c0.36,5.641,0.961,11.282,1.501,16.983
		c0.3,2.821,0.6,5.701,0.96,8.522c-0.061,2.34-0.061,4.681-0.18,7.021c0,0.6-0.061,1.14-0.061,1.74
		c-0.12,1.561,1.561,2.701,3.001,2.341c6.661-1.801,13.562-2.401,20.404-1.92C404.464,49.239,405.604,47.019,404.764,45.579z
		 M379.078,12.872c0.301-0.12,0.66-0.18,0.9-0.18c-0.12,0.18-0.24,0.42-0.3,0.6c-0.061,0.72-0.12,1.38-0.181,2.041
		c-0.479,1.561-0.18,3.661-0.119,5.101c0.06,2.941,0.119,5.881,0.18,8.822c0,1.08,0,2.22,0,3.3c-0.3-4.261-0.54-8.521-0.9-12.843
		c-0.12-1.08-0.18-2.22-0.3-3.3C378.298,15.272,377.698,13.412,379.078,12.872z M401.703,50.2c-3.421-0.06-6.842,0.06-10.262,0.36
		c-1.501,0.12-3.001,0.3-4.562,0.48c-1.561,0.24-3.36,0.36-4.741,1.02c-0.06,0.061-0.06,0.12,0,0.12
		c1.561,0.181,3.301-0.3,4.861-0.42c1.62-0.18,3.241-0.3,4.861-0.36c3.301-0.18,6.541-0.12,9.842,0.12
		C402.483,51.58,402.483,50.26,401.703,50.2z"/>
	<path style="fill:#EFEFEF;" d="M418.024,48.459c0.12,0.72-0.06,1.38-0.54,1.86c-0.36,0.48-0.96,0.72-1.561,0.78
		c0,0.12,0,0.24,0,0.3c0.12,0.72-0.06,1.38-0.54,1.861c-0.42,0.479-1.08,0.779-1.801,0.779h-0.06c-0.3,0.66-0.78,1.261-1.5,1.621
		c-0.721,0.359-1.561,0.54-2.4,0.54c-1.501,0-3.001-0.601-4.081-1.681c-0.36-0.18-0.721-0.42-1.021-0.72
		c-1.681-1.501-1.92-3.601-2.101-5.282c0-0.18,0-0.36-0.06-0.54c-0.601-4.981-0.9-9.482-0.841-13.623c0-0.42,0-0.78,0-1.201
		c0-1.8,0-3.661,0.24-5.521c0.181-1.68,0.721-3,1.561-3.961c0.12-0.12,0.18-0.18,0.24-0.3c-0.66-0.3-2.221-1.081-2.641-2.581
		c-0.3-1.2,0.06-2.46,1.021-3.841c0.42-0.48,0.779-0.9,1.26-1.32c0.18-0.54,0.48-1.021,0.84-1.621c0.54-0.72,1.141-1.32,1.801-1.8
		c0.18-0.18,0.36-0.3,0.6-0.48c1.741-1.14,3.481-1.74,5.102-1.74c0.601,0,1.141,0.06,1.681,0.18c2.34,0.6,3.961,2.041,4.681,4.081
		c0.48,1.38,0,2.88-1.32,3.841c-0.18,0.12-0.36,0.24-0.6,0.36c-0.061,0.66-0.301,1.26-0.66,1.741c0.119,0.36,0.239,0.72,0.239,1.08
		c0,0.06,0,0.06,0,0.12c0.181,0.12,0.36,0.24,0.54,0.36c0.36,0.42,0.601,0.9,0.541,1.44
		C416.464,31.656,416.944,40.177,418.024,48.459z M406.382,18.633c0.9,0.36,1.801,0.48,2.761,0.48c1.141,0,2.46-0.3,3.181-1.14
		c1.141-0.24,2.28-0.78,3.181-1.44c0.48-0.36,0.9-0.96,0.66-1.62c-0.601-1.561-1.801-2.46-3.421-2.881
		c-1.86-0.48-3.721,0.24-5.281,1.32c-0.12,0.06-0.24,0.18-0.36,0.3c-0.6,0.42-1.08,0.9-1.5,1.5c-0.42,0.6-0.96,1.44-0.72,2.22
		C405.002,17.973,405.842,18.453,406.382,18.633z M406.862,18.393c-0.421-0.12-0.78-0.36-1.141-0.66c-0.48-0.42-0.42-0.84-0.18-1.38
		c0.24-0.42,0.479-0.78,0.78-1.141c-0.601,1.38,0.06,2.761,1.8,3.121c1.381,0.24,2.161,0.12,2.881-0.06c0.06,0-0.36,0.54-2.101,0.54
		C408.183,18.753,407.522,18.633,406.862,18.393z M416.164,48.759c-1.141-8.522-1.62-17.043-1.381-25.625c0-0.06-0.42,0-0.42,0.12
		c-0.24,4.261-0.24,10.562-0.06,14.823c-0.12,0-0.3-2.101-0.42-2.041c-0.061-0.54-0.12-1.08-0.12-1.5
		c-0.061-2.22-0.181-4.441-0.181-6.601c0-2.221,0.12-4.381,0.12-6.602c-0.06-0.54-0.54-0.78-0.96-0.72
		c-0.96-2.4-4.021-0.18-5.281,0.66c-0.18,0.18-0.36,0.36-0.479,0.6c-0.721,0.72-1.081,1.86-1.261,3
		c-0.24,2.161-0.18,4.381-0.18,6.542c-0.061,4.501,0.24,8.942,0.78,13.383c0.239,1.681,0.3,3.481,1.56,4.681
		c0.301,0.24,0.601,0.42,0.9,0.54c0.061,0.06,0.061,0.12,0.12,0.18c1.141,1.14,2.94,1.5,4.381,0.78c0.54-0.24,0.66-0.72,0.601-1.141
		c0.479-0.18,0.96-0.54,1.26-1.02C415.264,49.419,416.224,49.359,416.164,48.759z M408.902,23.734c0,0,0,0,0.061,0
		c-0.66,1.92-0.78,4.141-0.78,6.181c-0.061,2.701,0,5.401,0,8.102h-0.181c-0.18-1.44-0.359-2.881-0.479-4.321c0-0.06,0-0.06,0-0.12
		c0-0.18,0-0.36,0-0.6c0.12-2.761,0.06-5.941,0.96-8.642C408.482,24.214,408.723,23.854,408.902,23.734z"/>
	<path style="fill:#EFEFEF;" d="M446.59,48.879l-0.06,0.18c0,0.66-0.12,1.26-0.24,1.86h-0.06c-0.12,0.3-0.301,0.6-0.541,0.78
		c-0.359,0.541-1.02,0.901-1.32,1.441c-0.3,0.42-0.42,1.02-0.779,1.5c-0.961,1.38-2.341,2.221-3.781,2.341
		c-0.3,0.12-0.66,0.18-1.021,0.18c-0.6,0-1.08-0.18-1.44-0.3c-2.46-1.08-2.94-3.661-3.3-5.401v-0.12c-0.12-0.6-0.24-1.14-0.36-1.68
		c-0.24-0.36-1.08-1.98-1.08-1.98l-3.901-6.901c0,0-0.24-0.42-0.54-1.021c0,0.42,0,0.84,0,1.2c0.061,1.5,0.12,2.941,0.18,4.441
		c0,0.3,0,0.6,0.061,0.96c0.06,1.02,0.12,2.22-0.12,3.361c-0.3,1.38-1.021,2.46-2.101,3c-0.36,1.561-1.26,2.641-2.46,3.062
		c-0.961,1.02-2.221,1.62-3.602,1.62c-0.54,0-1.02-0.061-1.5-0.24c-2.641-0.72-2.94-2.581-3.301-4.981
		c-0.78-5.581-1.2-11.222-1.38-16.863c-0.181-3.541-0.24-7.142-0.301-10.622c0-0.78-0.06-1.561-0.06-2.341
		c-0.06-1.56,0.3-3.901,1.681-4.861c0.54-0.42,1.26-1.26,1.38-1.98c0.12-0.78,0.84-1.14,1.44-1.44c0.12-0.42,0.3-0.78,0.601-1.14
		c0.72-1.02,1.86-1.62,3.061-1.62c3.061,0,5.881,3.541,6.361,4.201c0.6,0.78,1.2,1.62,1.8,2.521c0.061-0.12,0.12-0.24,0.181-0.36
		c0.3-0.6,0.78-1.021,1.2-1.5s0.66-1.14,1.02-1.68c0.301-0.48,0.78-0.78,1.081-1.201c0.66-1.14,1.92-1.74,3.3-1.74
		c1.021,0,2.041,0.3,2.821,0.84c0.18,0.12,0.359,0.24,0.54,0.36l0.479,0.42l0.061,0.18c1.141,0.06,2.101,0.9,2.341,2.041
		c0.54,2.581,1.02,5.161,1.439,7.742c0.66,4.381,1.201,8.762,1.561,13.143c0.181,2.04,0.301,4.141,0.36,6.241
		c0.06,2.041,0,4.141,0.24,6.181L446.59,48.879z M418.984,48.039c-0.181-4.261-0.36-9.302-0.54-13.503
		c-0.12-4.201-0.24-8.402-0.301-12.542c-0.06-1.92-0.119-3.841-0.06-5.761c-0.42,0.96-0.54,2.101-0.48,3.121
		c0.061,4.321,0.12,8.642,0.301,12.903c0.18,4.321,0.239,9.062,0.6,13.323C418.744,48.159,418.984,48.039,418.984,48.039z
		 M444.189,50.56c-0.48-7.381-1.141-14.823-2.341-22.145c-0.54-3.601-1.14-7.262-2.1-10.742c-0.301-1.141-0.66-2.281-0.9-3.421
		c-0.12-0.12-0.24-0.24-0.42-0.3c-1.021-0.72-2.821-0.84-3.541,0.48c0,0.06-0.061,0.06-0.061,0.12c-0.42,0.24-0.779,0.66-1.02,1.081
		c-0.66,1.2-0.12,2.34,0.18,3.48c0.601,2.161,0.96,4.321,1.38,6.481c0.541,3.061,1.201,6.242,1.501,9.242
		c-0.3-0.6-0.601-1.2-0.96-1.86c0-0.18,0-0.36-0.12-0.6c-1.2-2.461-2.461-4.861-3.841-7.202c-1.621-2.941-3.301-5.821-5.342-8.522
		c-1.14-1.5-4.561-5.041-6.421-2.581c-0.3,0.42-0.48,0.9-0.48,1.38c-0.42,0.06-0.84,0.3-1.14,0.54c-0.181,2.581-0.061,5.221,0,7.862
		c0.12,4.081,0.18,8.222,0.359,12.303c0.181,5.041,0.36,10.082,0.66,15.123c0.42,0.54,0.961,0.96,1.681,1.14
		c1.32,0.42,2.7-0.06,3.421-1.26c2.46-0.36,1.8-3.841,1.74-5.701c-0.06-2.4-0.12-4.801-0.24-7.202c0-4.081,0.061-8.162,0-12.242
		c0.3,0.42,0.601,0.9,0.96,1.32l10.442,18.664c0.12,0.66,0.24,1.32,0.36,2.041c0.3,1.561,0.66,3.421,2.28,4.141
		c0.36,0.181,0.841,0.24,1.2,0C442.569,52.18,443.529,51.46,444.189,50.56z M425.346,44.738c0.12,1.2,0.18,2.401,0.24,3.541
		c0.06,0.54-0.12,1.44-0.48,2.041c0.36-1.5-0.24-2.881-0.24-3.841l0.061-3.601c0.06-0.06,0.12-0.06,0.12-0.06
		c0.06-0.06,0.119-0.12,0.18-0.18C425.285,43.358,425.346,44.018,425.346,44.738z M444.729,47.379
		c0.061-10.622-1.26-21.245-3.421-31.687c-0.12-0.6-0.84-0.6-1.14-0.24c-0.24,0.24-0.24,0.48-0.181,0.66
		c2.461,11.163,3.781,22.565,4.562,34.027c0.06-0.12,0.12-0.18,0.24-0.18C444.85,49.119,444.79,47.799,444.729,47.379z"/>
	<path style="fill:#EFEFEF;" d="M462.541,23.208c-0.216,0.54-0.612,0.936-1.08,1.224c-0.036,0.18-0.108,0.36-0.181,0.54
		c-0.288,0.684-0.828,1.188-1.584,1.405c-0.252,0.108-0.54,0.144-0.792,0.144c-0.576,0-1.081-0.252-1.621-0.324
		c-0.576-0.036-0.973,0.036-1.368-0.468c-1.152-1.44-2.269-2.953-3.349-4.394l-0.324-0.432c-0.612-0.721-1.225-1.405-1.801-2.089
		c-1.08,1.548-2.125,3.133-3.097,4.682c-0.108,0.18-0.253,0.324-0.433,0.468c-0.288,0.432-0.54,0.864-0.828,1.296
		c-0.288,0.468-0.828,0.756-1.368,0.756c-0.108,0-0.252,0-0.36-0.036c-0.685,0.828-1.477,1.261-2.269,1.261
		c-0.252,0-0.468-0.036-0.721-0.108c-1.044-0.324-1.512-1.008-1.729-1.512c-0.396-0.864-0.323-1.945,0.145-2.989
		c0.432-0.973,0.937-1.945,1.404-2.917c1.009-2.305,2.269-4.573,3.854-6.986c-0.253-0.252-0.505-0.468-0.721-0.684
		c-0.54-0.504-1.152-1.008-1.692-1.512c-0.288-0.252-0.576-0.468-0.864-0.721c-0.18-0.18-0.396-0.324-0.612-0.504
		c-0.612-0.468-1.296-1.008-1.765-1.729c-0.144-0.252-0.216-0.504-0.18-0.792c-0.036,0-0.145-0.108-0.145-0.108l-0.071-0.144
		c-0.252-0.396-0.36-0.9-0.324-1.368c0.144-0.937,0.648-1.729,1.368-2.233c0.433-1.44,1.801-2.449,3.349-2.449
		c0.324,0,0.612,0.036,0.9,0.108c1.549,0.396,2.665,1.405,3.674,2.305l0.107,0.108c0.792,0.72,1.585,1.477,2.377,2.196
		c0.684-0.864,1.404-1.764,2.232-2.628c0.792-0.792,1.873-1.909,3.169-2.593c0.648-0.324,1.368-0.504,2.017-0.504
		c1.297,0,2.269,0.72,2.593,1.945c0.036,0.108,0.036,0.18,0.072,0.252c0,0.072,0.036,0.108,0.072,0.144
		c0.18,0.36,0.288,0.684,0.359,1.044c0.433,0.072,0.793,0.324,0.973,0.72c0.18,0.432,0.072,0.972-0.252,1.332
		c-0.288,0.324-0.612,0.648-0.937,1.009c0,0.252-0.107,0.54-0.324,0.756c-1.44,1.549-2.917,3.169-4.285,4.826
		c0.756,0.972,1.513,1.944,2.197,2.881c0.756,1.08,1.476,2.088,2.124,3.097l0.252,0.36c0.612,0.936,1.225,1.909,1.729,2.953
		C462.829,21.587,462.865,22.487,462.541,23.208z M461.425,21.335c-0.54-1.116-1.261-2.16-1.944-3.205
		c-0.648-1.008-1.369-2.053-2.089-3.061c-0.9-1.225-1.873-2.449-2.845-3.637c2.017-2.485,4.104-4.933,6.302-7.274
		c0.071-0.072-0.036-0.18-0.108-0.108c-2.269,2.233-4.465,4.574-6.518,6.986c-0.036-0.036-0.072-0.072-0.108-0.108
		c0.252-0.324,0.468-0.648,0.721-0.937c0.828-1.044,1.656-2.088,2.521-3.097c0.396-0.541,0.864-1.008,1.296-1.513
		c0.396-0.396,0.829-0.792,1.045-1.296c0.288-0.54,0.18-1.152-0.108-1.692c-0.072-0.072-0.107-0.18-0.216-0.252
		c0.036-0.108,0-0.252-0.036-0.396c-0.36-1.44-1.944-1.26-2.989-0.72c-1.08,0.576-2.017,1.512-2.881,2.413
		c-0.899,0.9-1.729,1.944-2.521,2.989c-0.107,0.108-0.144,0.252-0.18,0.396c-0.036,0.036-0.036,0.036-0.072,0.072
		c-0.036,0.036-0.072,0.108-0.108,0.144c-1.044-1.081-2.16-2.125-3.276-3.169c-1.009-0.864-1.98-1.801-3.313-2.125
		c-1.296-0.36-2.736,0.468-2.952,1.837c0,0.216,0.035,0.468,0.144,0.648c0.108,0.108,0.216,0.216,0.324,0.288
		c0.18,0.108,0.396,0.144,0.612,0.036c0.18,0.18,0.359,0.36,0.54,0.54c0.468,0.432,0.937,0.864,1.44,1.296
		c0.072,0.108,0.18,0.18,0.252,0.252c-0.18-0.108-0.36-0.252-0.54-0.36c-0.648-0.504-1.368-1.044-2.089-1.224
		c-0.107-0.036-0.18,0.072-0.144,0.144c0.504,0.792,1.476,1.405,2.196,2.017c0.288,0.288,4.213,3.313,3.925,3.709
		c-0.144,0.216-0.252,0.396-0.396,0.576c-1.44,2.232-2.773,4.537-3.817,6.986c-0.504,0.937-0.973,1.909-1.404,2.881
		c-0.54,1.152-0.504,2.521,0.9,2.953c0.72,0.216,1.368-0.288,1.765-0.828c0.144-0.18,0.288-0.36,0.432-0.576
		c0.108,0.072,0.216,0.072,0.324,0c0.18,0.288,0.648,0.36,0.864,0c1.656-2.593,3.385-5.15,5.222-7.635
		c0.288,0.36,0.612,0.685,0.937,1.009c0.612,0.72,1.224,1.44,1.872,2.16c1.188,1.621,2.377,3.277,3.637,4.862
		c0.289,0.36,0.865,0,0.612-0.432c-1.476-2.665-3.421-5.149-5.401-7.49c-0.324-0.36-0.612-0.72-0.937-1.081
		c0.036-0.036,0.145-0.216,0.181-0.252c0,0,1.62,1.729,1.801,1.945c3.097,3.853,4.896,7.058,4.896,7.058
		c0.396,0.541,0.721,0.756,1.405,0.541C461.604,23.244,461.82,22.199,461.425,21.335z"/>
</g>
<g>
	<path style="fill:#EFEFEF;" d="M39.188,125.25c-0.061,0.42-0.12,0.84-0.12,1.2c-0.18,1.38-1.08,2.581-2.16,3.241
		c-0.42,1.92-2.161,3.481-3.961,3.481c-0.061,0-0.181,0-0.24,0c-0.3-0.06-0.54-0.06-0.84-0.06c0.18,0.36,0.42,0.78,0.6,1.14
		c0.12,0.24,0.24,0.54,0.36,0.78c1.681,3.421,3.601,7.262,3.061,11.402c-0.18,1.32-0.96,2.28-2.101,2.761c0,0.06,0,0.12,0,0.18
		c-0.24,1.801-1.681,3.061-3.541,3.061c-0.359,0-0.78-0.06-1.14-0.18c-0.12,0-0.24,0-0.3,0c-0.36,0-0.721-0.06-1.081-0.12
		c-0.239,0.061-0.42,0.061-0.66,0.061c-0.359,0-0.72-0.061-1.08-0.24l-0.66-0.3l-0.24-0.721c-0.96-2.521-2.1-5.161-3.48-8.282
		c-0.66-1.56-1.86-4.681-1.86-4.681c-0.18-0.3-0.3-0.6-0.48-0.9c0.061,0.24,0.061,0.48,0.061,0.72c0,1.32-0.601,4.081-0.96,5.881
		c0,0.9-0.061,1.68-0.12,2.28l-0.24,0.48c-0.48,0.9-1.08,1.681-1.801,2.341c-0.06,0-0.06,0-0.06,0v0.12l-0.24,0.479
		c-0.48,0.9-1.08,1.681-1.801,2.341c-0.779,0.601-1.68,0.96-2.64,0.96c-1.081,0-2.041-0.479-2.761-1.32
		c-0.12-0.18-0.24-0.359-0.36-0.6c-0.84-0.42-1.44-1.261-1.5-2.28c-0.181-0.841-0.24-1.741-0.24-2.581c0-0.48-0.061-1.02-0.12-1.44
		c-0.12-1.14-0.3-2.4-0.54-3.901c-0.48-3.241-0.36-7.501-2.641-10.082c-1.561-1.8-3.781-3.361-3.001-6.121
		c0.301-1.14,1.021-2.041,1.98-2.521c0.061-0.12,0.061-0.24,0.12-0.42c0-0.12,0.061-0.18,0.061-0.3c-0.24-1.26-0.48-2.4-0.721-3.541
		l-0.3-1.14l0.84-0.66c-0.9-1.5-1.08-3.301-0.3-4.801c0.3-0.6,0.84-1.32,1.681-1.801c0.12-0.42,0.239-0.78,0.42-1.14
		c0.54-1.2,1.92-2.581,4.98-2.581c1.261,0,2.521,0.24,3.481,0.42l0.24,0.06c0.42,0.06,0.779,0.18,1.14,0.42
		c0.3,0.12,0.66,0.24,1.021,0.36c0.06,0.06,0.06,0.06,0.12,0.06c6.841,2.161,12.963,6.361,18.903,10.382
		c0.601,0.42,1.081,1.02,1.381,1.74c0.6,0.48,1.26,0.96,1.98,1.5C38.828,121.469,39.488,123.21,39.188,125.25z M36.188,121.89
		c-0.78-0.6-1.62-1.26-2.46-1.86c-0.12-0.48-0.36-0.96-0.841-1.32c-5.881-3.961-11.822-8.042-18.424-10.143
		c-0.06,0-0.12-0.06-0.18-0.06c-0.42-0.18-0.84-0.3-1.261-0.48c-0.12-0.12-0.3-0.24-0.54-0.24c-1.98-0.36-5.581-1.141-6.721,1.08
		c-0.66,1.38,0,3.061,1.14,4.021c-0.36,0.54-0.78,0.96-1.26,1.32c0.479,2.04,0.899,4.141,1.32,6.181c-0.36,0-0.721,0-1.081,0.06
		c-1.8,0-2.521,3-0.84,4.081c0.54,0.36,1.2,0.72,1.801,0.96c-0.48,0.06-0.9,0.12-1.381,0.18c0.66,0.24,1.32,0.48,1.98,0.66
		c0.24,0.06,0.36,0.24,0.36,0.42c0.12,0,0.24,0,0.36,0c0.12,0.72,0.239,1.38,0.359,2.101c0.48,2.82,0.961,5.641,1.44,8.461
		c0.181,1.32,0.36,2.641,0.54,3.961c0.12,1.32,0,2.761,0.301,4.021c0,0.66,0.6,1.08,1.08,0.96c0.06,0.36,0.18,0.66,0.359,0.96
		c0.721,0.84,1.921,0.78,2.701,0.12c0.6-0.48,1.021-1.08,1.38-1.8c0-0.3,0-0.66-0.06-1.021c0.18-2.94-0.12-6.001-0.3-8.942
		c-0.12-2.76-0.36-5.521-0.66-8.222c1.56,0.06,3.181,0.18,4.74,0.24c0.301,0.54,0.66,1.14,1.021,1.68v0.06
		c0.36,0.6,0.66,1.2,0.96,1.86c1.141,2.221,2.761,6.181,3.421,7.742c1.2,2.761,2.4,5.581,3.48,8.402c0.24,0.12,0.601,0,0.78-0.18
		c0,0.06,0.061,0.06,0.12,0.06c0.54,0.24,1.08,0.24,1.62,0.18c1.021,0.42,2.401,0.12,2.581-1.2c0.48-3.901-1.62-7.682-3.241-11.103
		c-1.26-2.581-2.7-5.041-4.32-7.441c2.82,0.24,5.641,0.48,8.462,0.66c0.96,0.12,2.101-0.9,2.22-2.041
		c0.061-0.42,0.12-0.84,0.181-1.26C37.508,123.69,37.147,122.609,36.188,121.89z M12.783,114.868c5.16,1.2,9.962,3.781,14.583,6.961
		c-1.921-0.24-3.901-0.48-5.821-0.72c-1.381-1.14-3.361-2.761-5.161-1.621c-0.301,0.24-0.48,0.6-0.54,0.9
		c-0.301-0.06-0.66-0.06-0.961-0.12c-0.239-1.26-0.54-2.521-0.84-3.781c-0.06-0.54-0.66-0.54-0.96-0.24
		c-0.061-0.12-0.061-0.3-0.12-0.42C12.902,115.528,12.843,115.168,12.783,114.868z M17.764,138.633c-0.3-3.601-0.6-7.201-1.2-10.682
		c-0.06,0-0.36,0-0.48,0c0.721,4.921,0.9,9.902,1.141,14.883C17.464,141.394,17.943,140.793,17.764,138.633z"/>
	<path style="fill:#EFEFEF;" d="M74.174,139.953c-0.181,0.36-0.48,0.72-0.841,0.9c-0.24,0.78-0.66,1.44-1.26,2.041
		c-0.36,0.66-1.021,1.14-1.801,1.32c-4.561,0.9-8.882,2.041-12.902,3.42c-1.86,0.66-3.841,1.381-5.821,2.16
		c-0.12,0.061-0.24,0.12-0.36,0.12l-0.24,0.12c-0.54,0.24-1.08,0.48-1.74,0.721c-0.78,0.54-1.681,0.96-2.881,1.32
		c-0.479,0.18-1.08,0.42-1.8,0.54l-0.181,0.06h-0.18c-0.18,0-0.3,0-0.48-0.06c-0.3,0.06-0.6,0.06-0.899,0.06
		c-1.621,0-2.881-0.78-3.541-2.101c-0.061-0.12-0.12-0.3-0.18-0.479c-0.66-0.48-1.201-1.141-1.561-1.86
		c-0.54-1.081-0.721-2.221-0.54-3.301c-0.181-1.38-0.301-2.761-0.421-4.141c-0.06-0.6-0.119-1.26-0.18-1.92l-1.32-13.503
		c-0.78-1.08-1.2-2.46-1.08-3.841c0.12-1.14,0.54-2.101,1.141-3c-0.181-0.36-0.301-0.72-0.24-1.14c0.06-0.72,0.479-1.38,1.08-1.681
		c0.36-0.24,0.72-0.42,1.08-0.6c-0.06-0.18-0.06-0.42-0.06-0.66c0.06-0.72,0.479-1.38,1.08-1.68
		c4.261-2.281,8.821-3.601,13.143-4.741c0.48-0.18,0.96-0.3,1.38-0.36h0.061l0.6-0.12c2.341-0.48,4.682-0.96,7.142-1.14
		c0.601-0.06,1.2-0.06,1.801-0.06l0.12,0.96c0.66-0.18,1.32-0.36,1.98-0.54l0.78-0.24l0.42,0.12c0.48,0.06,0.96,0.18,1.38,0.3
		s0.78,0.24,1.141,0.42l0.24,0.12l0.24,0.12c0.359,0.3,0.72,0.6,1.02,0.9l0.36,0.36l0.18,0.42c0.54,1.621,0.721,3.181,0.421,4.621
		l-0.181,1.14l-1.08,0.36c-0.24,0.06-0.48,0.12-0.72,0.18c0,0.36,0,0.72-0.061,1.081c0.66,0.36,1.381,0.9,1.921,1.86
		c0.12,0.18,0.18,0.36,0.3,0.6c0,0.06,0.06,0.18,0.12,0.24c0.72,0.6,1.2,1.44,1.44,2.46c0.359,1.8-0.54,3.781-2.161,4.801
		c0,0.06,0,0.06-0.06,0.12c2.28,0.42,5.161,2.4,5.641,9.482C75.733,137.613,75.193,138.933,74.174,139.953z M73.753,136.353
		c-0.239-3.421-1.38-8.702-6.001-7.742c-0.66,0.18-1.26,0.48-1.92,0.66c-0.78,0.24-1.561,0.48-2.341,0.72
		c-1.44,0.48-2.881,1.02-4.321,1.561c-0.899,0.3-1.8,0.66-2.7,1.02c-1.74,0.66-3.421,1.32-5.102,1.98
		c-1.32,0.54-2.641,1.08-3.96,1.68c-0.061,0.06-0.12,0.06-0.181,0.12c0-0.12,0-0.18,0-0.24c-0.12-1.32-0.24-2.581-0.36-3.901
		c1.681-0.84,3.301-1.68,5.041-2.4c2.821-1.2,5.642-2.1,8.522-2.88c1.44-0.36,2.94-0.66,4.381-0.9c1.38-0.3,2.7-0.24,3.961-0.84
		c1.08-0.54,1.8-1.86,1.561-3c-0.12-0.6-0.48-1.2-1.021-1.5c-0.061,0-0.061,0-0.12-0.06c-0.06-0.24-0.18-0.48-0.3-0.72
		c-0.061-0.12-0.12-0.3-0.24-0.48c-0.84-1.44-2.28-1.5-3.781-1.44c-0.72,0.06-1.38,0.12-2.1,0.24c-0.24,0.06-0.541,0.12-0.78,0.18
		c-1.921,0.54-3.901,1.08-5.821,1.561c-3.421,1.26-6.722,2.7-10.082,4.141c0-0.3-0.36-2.46-0.421-3.061c0,0,0.061-0.06,0.12-0.12
		c1.86-0.78,3.781-1.5,5.701-2.161c0.66-0.3,6.602-2.1,9.662-2.94c0.12,0,0.24-0.06,0.36-0.12c1.38-0.36,2.761-0.78,4.081-1.2
		c1.02-0.3,2.04-0.6,3-0.9c0.24-1.201,0.061-2.461-0.359-3.721c-0.301-0.24-0.66-0.54-0.961-0.78c-0.3-0.12-0.6-0.24-0.96-0.36
		c-0.359-0.12-0.78-0.18-1.2-0.24c-3.12,0.84-6.241,1.68-9.422,2.4c-4.081,0.84-8.162,1.74-12.123,3.121
		c-1.26,0.42-2.58,0.9-3.84,1.44c-0.061,0.18-0.181,0.36-0.24,0.48c-0.841,0.72-1.381,1.62-1.501,2.82
		c-0.12,1.021,0.24,2.161,0.961,2.941l0.72,6.841c0.24,2.4,0.48,4.801,0.72,7.202c0.181,2.101,0.301,4.261,0.66,6.301
		c-0.54,1.561,0.48,3.361,1.98,3.961c-0.06,0.3-0.06,0.54,0.061,0.84c0.479,1.02,1.561,1.08,2.521,0.9c0.24,0,0.6-0.06,0.6-0.06
		c-0.06,0.06,3.361-0.96,4.081-1.44l0.061-0.06c0.66-0.3,1.32-0.541,1.98-0.84c0.12-0.06,0.3-0.12,0.42-0.18c0,0,0,0,0.06,0
		c1.98-0.84,4.021-1.56,6.062-2.28c4.261-1.5,8.702-2.641,13.143-3.481c0.36-0.06,0.54-0.3,0.601-0.6
		C73.333,138.273,73.813,137.433,73.753,136.353z M38.946,114.748c1.32-0.6,2.641-1.14,4.021-1.561
		c3.961-1.38,8.042-2.28,12.123-3.181c2.34-0.54,4.74-1.14,7.081-1.74c-0.54,0-1.08,0-1.62,0.06c-2.581,0.18-5.041,0.66-7.502,1.14
		c-0.48,0.12-0.9,0.24-1.38,0.36c-4.321,1.141-8.762,2.461-12.723,4.561C38.826,114.508,38.826,114.688,38.946,114.748z
		 M48.308,145.654c1.141-0.36,2.221-0.78,3.301-1.2v0.12c-0.9,0.48-1.8,0.96-2.761,1.44c-0.42,0.24-0.899,0.48-1.38,0.72
		c-0.06,0.06-0.12,0.06-0.18,0.06c-0.181,0.06-1.561,0.18-2.461,0.06C46.027,146.555,47.168,146.075,48.308,145.654z M58.15,126.271
		c-0.36,0.12-0.66,0.24-1.021,0.42c-3.001,1.2-6.121,2.34-9.062,3.841c0.48-0.42,0.841-1.02,0.961-1.68
		c1.14-0.3,2.28-0.66,3.48-1.021c1.86-0.6,3.721-1.14,5.581-1.74L58.15,126.271z"/>
	<path style="fill:#EFEFEF;" d="M106.578,136.533c-0.84,3.121-2.221,5.881-4.081,7.861c-0.96,1.741-2.16,3.181-3.54,4.321
		c-3.121,2.521-7.202,3.961-11.163,3.961c-1.98,0-3.96-0.359-5.761-1.08c-5.642-2.341-9.842-7.202-11.103-13.083
		c-0.48-2.161-0.54-4.681-0.3-6.902c0.9-7.801,7.081-15.723,13.263-20.284c1.261-0.9,2.521-1.68,3.781-2.46
		c0.18-0.06,0.359-0.18,0.479-0.24c1.2-0.72,2.701-1.62,4.381-1.62c0.12,0,0.301,0.06,0.42,0.06c2.041,0.18,3.481,1.56,3.721,3.42
		c0.36,1.021,0.36,1.98,0.24,3.001c-0.06,0.96-0.06,1.86-0.06,2.88c0,2.041,0,3.901,0.12,5.701c0,0.42,0,0.84,0,1.2
		c0.359-0.36,0.84-0.72,1.32-1.02c0.84-0.48,1.74-0.72,2.641-0.72c1.86,0,3.601,0.96,4.681,2.581
		C108.199,128.011,107.299,133.532,106.578,136.533z M104.058,125.13c-1.08-1.561-3.12-2.281-4.801-1.26
		c-1.801,1.02-2.04,3.061-1.261,4.801c-0.06-0.06-0.06-0.18-0.119-0.24c0.479,0.9,0.54,1.92,0.6,2.941
		c0.061,2.1-0.18,4.381-1.26,6.301c-0.36,0.72-0.961,1.44-1.561,1.98c-1.62,1.44-3.721,2.22-5.941,2.28c-0.24,0-0.54-0.06-0.78-0.06
		c-3.9-0.24-7.201-3.601-8.342-7.141c-0.42-1.32-0.66-2.701-0.6-4.141c0-0.3,0-0.66,0.06-0.96c0-0.36,0.06-0.36,0.12-0.84
		c0.96-5.101,4.381-9.182,8.462-12.303c0.3-0.18,0.54-0.36,0.78-0.54c0.12,3.841,0.239,7.682,0.359,11.583
		c0.061,1.92,0,3.901,0.841,5.761c0.66,1.44,2.28,2.46,3.841,2.28c1.26-0.12,1.02-1.98-0.24-1.74c-1.74,0.3-2.581-1.621-2.94-3
		c0-0.06,0-0.12,0-0.18h0.18c0.12,0.36,0.24,0.78,0.48,1.14c0.359,0.72,0.9,1.32,1.68,1.561c0.12,0,0.301,0.06,0.48,0
		c0.06,0.12,0.18,0.18,0.36,0.3c0.3,0.18,0.78,0,0.84-0.36c0.18-0.78,0.061-1.621,0.061-2.46c-0.061-0.96-0.12-1.98-0.12-3.001
		c-0.061-1.92-0.12-3.841-0.181-5.701c-0.06-1.92-0.12-7.802,0-8.822c0.061-0.9,0.12-1.62-0.24-2.34c0-1.021-0.779-1.92-2.04-2.041
		c-1.44-0.12-2.94,0.9-4.141,1.62c-1.261,0.72-2.461,1.5-3.601,2.341c-2.461,1.74-4.501,3.841-6.302,6.241
		c-2.7,3.48-4.201,7.802-4.261,12.183c0,1.32,0.18,2.641,0.42,3.901c1.141,5.281,5.041,9.662,9.962,11.643
		c5.041,2.041,10.982,0.72,15.063-2.581c2.521-1.98,4.021-5.161,4.801-8.222C105.618,132.692,106.038,128.191,104.058,125.13z
		 M86.774,136.953c-0.841-1.92-0.9-3.961-0.961-5.761c0-0.18,0-0.42,0-0.66l-0.239-7.802c-0.66,0.54-1.261,1.2-1.86,1.86
		c-0.78,1.38-1.381,2.881-1.681,4.501l-0.061,0.24c-0.06,0.3-0.06,0.3-0.06,0.48c0,0.3-0.06,0.54-0.06,0.84c0,0.48,0,1.08,0.06,1.62
		c0,0.06,0,0.12,0,0.12c0,0.06,0.06,0.06,0.06,0.12c0.061,0.24,0.061,0.54,0.12,0.72c0.181,0.6,0.301,1.02,0.48,1.44v0.12
		c0.06,0.12,0.12,0.24,0.18,0.36c0.12,0.18,0.24,0.42,0.36,0.6c0.24,0.48,0.48,0.84,0.721,1.14c0.06,0.12,0.18,0.24,0.3,0.36
		c0.12,0.18,0.3,0.36,0.42,0.48c0.18,0.18,0.36,0.36,0.54,0.48c0.12,0.12,0.24,0.18,0.36,0.3c0.479,0.36,0.84,0.6,1.2,0.78h0.06
		c0.061,0.06,0.181,0.12,0.24,0.12c0.061,0.06,0.12,0.06,0.18,0.12c0.12,0.06,0.24,0.06,0.36,0.12c0.48,0.12,0.841,0.24,1.141,0.3
		c0.12,0,0.42,0,0.42,0.06c0.24,0,0.48,0,0.66,0c0.06,0,0.18,0,0.24,0C88.574,139.473,87.374,138.333,86.774,136.953z
		 M90.255,121.77c-0.18-1.98-0.42-3.961-0.601-6.001c0.301-0.18,0.66-0.42,0.961-0.66c-0.181,2.221-0.181,4.441-0.061,6.662H90.255z
		"/>
	<path style="fill:#EFEFEF;" d="M130.763,133.532c-0.36,3.721-1.021,7.562-3.181,10.683c-0.421,0.6-0.841,1.14-1.32,1.62
		c-0.24,0.48-0.48,0.9-0.78,1.32c-0.78,1.14-1.621,2.041-2.521,2.821c-1.501,1.44-3.301,2.341-5.222,2.58
		c-0.36,0.061-0.78,0.12-1.2,0.12c-0.3,0-0.66-0.06-0.96-0.06c-0.36,0.06-0.721,0.06-1.141,0.06c-2.04,0-4.261-0.84-5.941-2.221
		c-2.76-2.34-4.501-5.821-5.28-10.682c-1.32-8.462,0.119-16.864,4.141-23.585c0.72-1.741,1.62-3.301,2.641-4.621
		c0.12-0.24,0.3-0.36,0.479-0.48c0.48-0.9,1.021-1.74,1.621-2.46c0.359-0.54,0.96-0.78,1.56-0.78c0.301,0,0.601,0.06,0.9,0.18
		c0.54-0.36,1.08-0.6,1.681-0.72c0.96-0.36,1.92-0.6,2.761-0.6c0.42-0.06,0.84-0.06,1.2-0.06c0.96,0,1.8,0.18,2.521,0.6
		c0.78,0.48,1.38,1.201,1.92,1.98c0.841,0.18,1.561,0.72,1.98,1.5c0.841,1.621,1.74,3.481,2.4,5.401c0.48,1.62,0.9,3.48,1.261,5.761
		C130.942,126.15,131.122,129.931,130.763,133.532z M128.422,122.129c-0.3-1.8-0.66-3.661-1.2-5.461
		c-0.601-1.741-1.44-3.421-2.28-5.041c-0.301-0.541-0.9-0.66-1.381-0.48c-0.42-0.78-1.021-1.8-1.8-2.28
		c-0.721-0.42-1.741-0.42-2.581-0.24c-0.78-0.06-1.561,0.18-2.341,0.48c-1.92,0.42-3.36,2.28-4.381,4.501c-0.12,0-0.3-0.06-0.479,0
		c0.24-0.66,0.479-1.32,0.78-1.98c0.239-0.6,0.6-1.201,0.96-1.801c0.06-0.12-0.061-0.18-0.12-0.06c-1.021,1.32-1.801,2.76-2.4,4.321
		c-0.061,0.06-0.061,0.12-0.12,0.12c-4.021,6.721-5.102,14.643-3.901,22.325c0.601,3.541,1.801,7.142,4.621,9.542
		c1.621,1.32,3.841,2.041,5.821,1.68c0.66,0.06,1.32,0.06,1.98,0c1.681-0.24,3.061-1.02,4.201-2.16
		c0.84-0.72,1.561-1.561,2.221-2.461c1.98-2.82,2.521-6.481,2.82-9.782C129.262,129.571,129.021,125.85,128.422,122.129z
		 M121.4,121.83c0.479,2.94,0.66,6.001,0.9,9.002c0,2.94-0.36,5.941-1.381,8.762c-0.18,0.72-0.479,1.38-0.84,2.041
		s-0.9,1.2-1.62,1.44c-2.581,0.78-4.682-1.681-5.642-3.661c0-0.06,0-0.06-0.06-0.06c0.6,0.42,1.439,0.6,2.16,0.42
		c0.24-0.06,0.48-0.18,0.66-0.3c-0.9-3.901-1.381-7.981-1.2-12.062c0.12-1.38,0.24-2.761,0.479-4.141
		c0.061-0.06,0.061-0.12,0.12-0.24c0.48-2.46,1.261-4.921,2.4-7.142c0.24-0.42,0.48-0.9,0.841-1.14
		c-3.421,7.201-3.541,16.023-1.86,23.825c0.3-0.541,0.359-1.141,0.24-1.801c-0.721-4.441-0.78-9.062-0.24-13.503
		c0.3-2.28,0.84-4.501,1.5-6.661c0.18-0.6,0.42-1.38,0.78-2.041c0.12,0,0.18,0,0.3,0c0.061,0,0.181,0.06,0.24,0.12
		c0.24,0.42,0.42,0.9,0.601,1.32c0.42,1.02,0.78,2.1,1.14,3.181C121.101,120.029,121.22,120.929,121.4,121.83z M119.96,130.771
		c0-3.721-0.18-7.562-0.9-11.163c0,0,0-0.06,0-0.12c-0.42,1.44-0.66,2.761-0.84,4.021c-0.54,4.441-0.48,8.822,0.24,12.903
		c0.18,1.08,0.06,2.161-0.421,3l-0.899,1.86c0.06,0.06,0.18,0.06,0.3,0.06s0.3,0,0.42-0.06c0.061-0.06,0.3-0.12,0.601-0.54
		c0.239-0.6,0.479-1.14,0.72-1.74C120.08,136.353,120.02,133.592,119.96,130.771z"/>
	<path style="fill:#EFEFEF;" d="M164.848,125.25l0.3,0.12c-0.36,1.86-0.84,3.721-1.5,5.641c0,0.18-0.181,0.541-0.181,0.541v0.12
		l-0.06,0.12c-0.12,0.3-0.24,0.54-0.36,0.78l-0.06,0.06l-0.061,0.06c-0.78,1.32-1.62,2.46-2.46,3.541
		c-2.161,3.361-4.562,6.001-7.262,8.102c-3.121,2.46-6.182,4.021-9.422,4.741c-1.621,0.42-3.181,0.601-4.682,0.601
		c-0.18,0-0.359,0-0.54,0c-0.84-0.061-1.74-0.301-2.4-0.841c-1.26-0.18-2.4-0.54-3.421-1.14c-1.56-0.96-2.88-2.34-3.78-3.901
		c-1.681-1.92-2.761-4.321-3.181-6.901c-0.66-4.621,1.02-9.542,4.681-13.983c0.721-1.2,1.561-2.34,2.521-3.481
		c2.221-2.46,5.701-5.701,10.442-7.381c0.42-0.54,0.96-0.9,1.681-1.08c3.78-0.96,6.901-1.38,9.782-1.38c1.62,0,3.181,0.12,4.62,0.42
		c1.141,0.24,3.602,0.72,4.682,2.581c0.359,0.6,0.66,1.68,0.18,3c-0.18,0.601-0.66,1.38-1.74,1.861v0.06
		c1.26,0.541,2.221,1.621,2.641,3.001c0.42,1.32,0.3,2.82-0.3,4.321C164.968,125.01,164.907,125.13,164.848,125.25z
		 M163.467,121.049c-0.42-1.44-1.92-2.221-3.36-2.041c-2.82,0.36-5.581,1.14-8.342,1.8s-5.521,1.38-8.222,2.161
		c-0.12,0.06-0.24,0.06-0.3,0.12c-1.2,0.3-1.621,1.32-1.501,2.28c-0.12,0.06-0.24,0.12-0.359,0.18
		c-2.341,1.26-0.721,4.921,1.8,4.261c2.701-0.72,5.341-1.56,8.042-2.16c1.32-0.3,2.641-0.541,3.961-0.84c0.06,0,0.12,0,0.24,0
		c-0.54,0.96-1.081,1.92-1.681,2.88c-1.261,2.041-2.7,3.901-4.441,5.582c-1.5,1.44-3.36,2.7-5.28,3.541
		c-0.36,0.12-0.78,0.3-1.201,0.42c-1.439,0.36-2.88,0.48-4.32,0.24c-0.24-0.06-0.54-0.12-0.78-0.18c-1.44-0.9-1.98-2.82-1.921-4.621
		c0-2.161,0.721-4.381,1.621-6.302c1.8-3.841,4.86-7.081,8.581-9.122c2.161-1.141,4.562-1.92,6.962-2.281
		c1.2-0.18,2.4-0.24,3.601-0.24c1.381,0.06,2.701-0.06,4.021,0c0.42,0,0.66-0.42,0.54-0.78c0.66-0.12,1.26-0.3,1.5-0.96
		c0.72-2.16-2.04-2.82-3.541-3.121c-4.44-0.9-9.182-0.18-13.503,0.96c-0.479,0.12-0.72,0.42-0.78,0.78
		c-4.021,1.26-7.621,3.9-10.382,7.081c-3.061,3.541-5.341,8.162-4.621,12.963c0.3,2.341,1.32,4.441,2.82,6.062
		c0.78,1.44,1.86,2.641,3.181,3.42c1.081,0.66,2.281,0.9,3.481,0.96c0.06,0.54,0.96,0.72,1.44,0.78c1.62,0,3.181-0.18,4.74-0.54
		c3.241-0.78,6.122-2.401,8.702-4.381c2.881-2.28,5.222-5.101,7.201-8.222c0.12-0.24,0.24-0.48,0.36-0.72
		c0.061-0.18,0.12-0.36,0.181-0.54c0.3-0.96,0.479-1.92,0.72-2.88c-0.12-0.12-0.18-0.24-0.24-0.36
		c-4.021,8.762-11.763,13.923-14.163,15.063c-1.26,0.66-2.641,1.2-4.021,1.56c-0.48,0.12-4.021,0.9-4.621,0.24
		c1.32,0,2.761-0.24,4.021-0.6c0.24-0.06,0.421-0.12,0.66-0.18c2.521-0.66,4.921-1.92,7.082-3.421c1.32-0.9,2.521-2.04,3.601-3.181
		c2.101-1.92,3.9-4.141,5.401-6.601c1.2-1.86,2.101-3.841,2.88-5.941C163.587,123.21,163.768,122.069,163.467,121.049z
		 M137.661,134.672c0,1.32,0.301,2.34,0.9,2.88c0.061,0,0.181,0.06,0.24,0.06c0.36,0.06,0.78,0.06,1.2,0.06
		c0.721,0,1.5-0.06,2.341-0.24c0.3-0.12,0.6-0.24,0.96-0.36c1.561-0.72,3.241-1.8,4.681-3.181c0.48-0.48,0.9-0.9,1.32-1.44
		c-1.5,0.42-3.12,0.84-4.621,1.26c-1.02,0.3-2.1,0.6-3.12,0.84c-0.36,0.12-0.721,0.18-1.08,0.18c-1.021,0-1.98-0.42-2.761-1.081
		C137.661,133.952,137.661,134.312,137.661,134.672z"/>
	<path style="fill:#EFEFEF;" d="M194.011,144.754l-0.06,0.18c0,0.66-0.12,1.26-0.24,1.86h-0.061c-0.119,0.3-0.3,0.6-0.54,0.78
		c-0.359,0.541-1.02,0.901-1.32,1.441c-0.3,0.42-0.42,1.02-0.779,1.5c-0.961,1.38-2.341,2.221-3.781,2.341
		c-0.3,0.12-0.66,0.18-1.021,0.18c-0.6,0-1.08-0.18-1.44-0.3c-2.46-1.08-2.94-3.661-3.3-5.401v-0.12c-0.12-0.6-0.24-1.14-0.36-1.68
		c-0.24-0.36-1.08-1.98-1.08-1.98l-3.901-6.901c0,0-0.24-0.42-0.54-1.021c0,0.42,0,0.84,0,1.2c0.061,1.5,0.12,2.941,0.18,4.441
		c0,0.3,0,0.6,0.061,0.96c0.06,1.02,0.12,2.22-0.12,3.361c-0.3,1.38-1.021,2.46-2.101,3c-0.36,1.561-1.26,2.641-2.46,3.062
		c-0.961,1.02-2.221,1.62-3.602,1.62c-0.54,0-1.02-0.061-1.5-0.24c-2.641-0.72-2.94-2.581-3.301-4.981
		c-0.78-5.581-1.2-11.222-1.38-16.863c-0.181-3.541-0.24-7.142-0.301-10.622c0-0.78-0.06-1.561-0.06-2.341
		c-0.06-1.56,0.3-3.901,1.681-4.861c0.54-0.42,1.26-1.26,1.38-1.98c0.12-0.78,0.84-1.14,1.44-1.44c0.12-0.42,0.3-0.78,0.601-1.14
		c0.72-1.02,1.86-1.62,3.061-1.62c3.061,0,5.881,3.541,6.361,4.201c0.6,0.78,1.2,1.62,1.8,2.521c0.061-0.12,0.12-0.24,0.181-0.36
		c0.3-0.6,0.779-1.021,1.2-1.5c0.42-0.48,0.66-1.14,1.02-1.68c0.301-0.48,0.78-0.78,1.081-1.201c0.66-1.14,1.92-1.74,3.3-1.74
		c1.021,0,2.041,0.3,2.821,0.84c0.18,0.12,0.359,0.24,0.54,0.36l0.479,0.42l0.061,0.18c1.141,0.06,2.101,0.9,2.341,2.041
		c0.54,2.581,1.02,5.161,1.439,7.742c0.66,4.381,1.201,8.762,1.561,13.143c0.181,2.04,0.3,4.141,0.36,6.241
		c0.06,2.041,0,4.141,0.24,6.181L194.011,144.754z M166.405,143.914c-0.181-4.261-0.36-9.302-0.54-13.503
		c-0.12-4.201-0.24-8.402-0.301-12.542c-0.06-1.92-0.119-3.841-0.06-5.761c-0.42,0.96-0.54,2.101-0.48,3.121
		c0.061,4.321,0.12,8.642,0.301,12.903c0.18,4.321,0.239,9.062,0.6,13.323C166.165,144.034,166.405,143.914,166.405,143.914z
		 M191.61,146.435c-0.48-7.381-1.141-14.823-2.341-22.145c-0.54-3.601-1.14-7.262-2.1-10.742c-0.301-1.141-0.66-2.281-0.9-3.421
		c-0.12-0.12-0.24-0.24-0.42-0.3c-1.021-0.72-2.821-0.84-3.541,0.48c0,0.06-0.061,0.06-0.061,0.12c-0.42,0.24-0.779,0.66-1.02,1.081
		c-0.66,1.2-0.12,2.34,0.18,3.48c0.601,2.161,0.96,4.321,1.38,6.481c0.541,3.061,1.201,6.242,1.501,9.242
		c-0.3-0.6-0.601-1.2-0.96-1.86c0-0.18,0-0.36-0.12-0.6c-1.2-2.461-2.461-4.861-3.841-7.202c-1.621-2.941-3.301-5.821-5.342-8.522
		c-1.14-1.5-4.561-5.041-6.421-2.581c-0.3,0.42-0.48,0.9-0.48,1.38c-0.42,0.06-0.84,0.3-1.14,0.54c-0.181,2.581-0.061,5.221,0,7.862
		c0.12,4.081,0.18,8.222,0.359,12.303c0.181,5.041,0.36,10.082,0.66,15.123c0.42,0.54,0.961,0.96,1.681,1.14
		c1.32,0.42,2.7-0.06,3.421-1.26c2.46-0.36,1.8-3.841,1.74-5.701c-0.06-2.4-0.12-4.801-0.24-7.202c0-4.081,0.061-8.162,0-12.242
		c0.3,0.42,0.601,0.9,0.96,1.32l10.442,18.664c0.12,0.66,0.24,1.32,0.36,2.041c0.3,1.561,0.66,3.421,2.28,4.141
		c0.36,0.181,0.841,0.24,1.2,0C189.99,148.055,190.95,147.335,191.61,146.435z M172.767,140.613c0.12,1.2,0.18,2.401,0.24,3.541
		c0.06,0.54-0.12,1.44-0.48,2.041c0.36-1.5-0.24-2.881-0.24-3.841l0.061-3.601c0.06-0.06,0.12-0.06,0.12-0.06
		c0.06-0.06,0.119-0.12,0.18-0.18C172.706,139.233,172.767,139.893,172.767,140.613z M192.15,143.254
		c0.061-10.622-1.26-21.245-3.421-31.687c-0.12-0.6-0.84-0.6-1.14-0.24c-0.24,0.24-0.24,0.48-0.181,0.66
		c2.461,11.163,3.781,22.565,4.562,34.027c0.06-0.12,0.12-0.18,0.24-0.18C192.271,144.994,192.211,143.674,192.15,143.254z"/>
	<path style="fill:#EFEFEF;" d="M205.952,144.334c0.12,0.72-0.06,1.38-0.54,1.86c-0.36,0.48-0.96,0.72-1.561,0.78
		c0,0.12,0,0.24,0,0.3c0.12,0.72-0.06,1.38-0.54,1.861c-0.42,0.479-1.08,0.779-1.801,0.779h-0.06c-0.3,0.66-0.78,1.261-1.5,1.621
		c-0.721,0.359-1.561,0.54-2.4,0.54c-1.501,0-3.001-0.601-4.081-1.681c-0.36-0.18-0.721-0.42-1.021-0.72
		c-1.681-1.501-1.92-3.601-2.101-5.282c0-0.18,0-0.36-0.06-0.54c-0.601-4.981-0.9-9.482-0.841-13.623c0-0.42,0-0.78,0-1.201
		c0-1.8,0-3.661,0.24-5.521c0.181-1.68,0.721-3,1.561-3.961c0.12-0.12,0.18-0.18,0.24-0.3c-0.66-0.3-2.221-1.081-2.641-2.581
		c-0.3-1.2,0.06-2.46,1.021-3.841c0.42-0.48,0.779-0.9,1.26-1.32c0.18-0.54,0.48-1.021,0.84-1.621c0.54-0.72,1.141-1.32,1.801-1.8
		c0.18-0.18,0.36-0.3,0.6-0.48c1.741-1.14,3.481-1.74,5.102-1.74c0.601,0,1.141,0.06,1.681,0.18c2.34,0.6,3.961,2.041,4.681,4.081
		c0.48,1.38,0,2.88-1.32,3.841c-0.18,0.12-0.36,0.24-0.6,0.36c-0.061,0.66-0.301,1.26-0.66,1.741c0.119,0.36,0.239,0.72,0.239,1.08
		c0,0.06,0,0.06,0,0.12c0.181,0.12,0.36,0.24,0.54,0.36c0.36,0.42,0.601,0.9,0.541,1.44
		C204.392,127.531,204.872,136.052,205.952,144.334z M194.31,114.508c0.9,0.36,1.801,0.48,2.761,0.48c1.141,0,2.46-0.3,3.181-1.14
		c1.141-0.24,2.28-0.78,3.181-1.44c0.48-0.36,0.9-0.96,0.66-1.62c-0.601-1.561-1.801-2.46-3.421-2.881
		c-1.86-0.48-3.721,0.24-5.281,1.32c-0.12,0.06-0.24,0.18-0.36,0.3c-0.6,0.42-1.08,0.9-1.5,1.5c-0.42,0.6-0.96,1.44-0.72,2.22
		C192.93,113.848,193.77,114.328,194.31,114.508z M194.79,114.268c-0.421-0.12-0.78-0.36-1.141-0.66c-0.48-0.42-0.42-0.84-0.18-1.38
		c0.24-0.42,0.479-0.78,0.78-1.141c-0.601,1.38,0.06,2.761,1.8,3.121c1.381,0.24,2.161,0.12,2.881-0.06c0.06,0-0.36,0.54-2.101,0.54
		C196.11,114.628,195.45,114.508,194.79,114.268z M204.092,144.634c-1.141-8.522-1.62-17.043-1.381-25.625c0-0.06-0.42,0-0.42,0.12
		c-0.24,4.261-0.24,10.562-0.06,14.823c-0.12,0-0.3-2.101-0.42-2.041c-0.061-0.54-0.12-1.08-0.12-1.5
		c-0.061-2.22-0.181-4.441-0.181-6.601c0-2.221,0.12-4.381,0.12-6.602c-0.06-0.54-0.54-0.78-0.96-0.72
		c-0.96-2.4-4.021-0.18-5.281,0.66c-0.18,0.18-0.36,0.36-0.479,0.6c-0.721,0.72-1.081,1.86-1.261,3
		c-0.24,2.161-0.18,4.381-0.18,6.542c-0.061,4.501,0.24,8.942,0.78,13.383c0.239,1.681,0.3,3.481,1.56,4.681
		c0.301,0.24,0.601,0.42,0.9,0.54c0.061,0.06,0.061,0.12,0.12,0.18c1.141,1.14,2.94,1.5,4.381,0.78c0.54-0.24,0.66-0.72,0.601-1.141
		c0.479-0.18,0.96-0.54,1.26-1.02C203.191,145.294,204.151,145.234,204.092,144.634z M196.83,119.609c0,0,0,0,0.061,0
		c-0.66,1.92-0.78,4.141-0.78,6.181c-0.061,2.701,0,5.401,0,8.102h-0.181c-0.18-1.44-0.359-2.881-0.479-4.321c0-0.06,0-0.06,0-0.12
		c0-0.18,0-0.36,0-0.6c0.12-2.761,0.06-5.941,0.96-8.642C196.41,120.089,196.65,119.729,196.83,119.609z"/>
	<path style="fill:#EFEFEF;" d="M244.299,142.534c0.06,1.32-0.54,2.581-1.561,3.481c-0.18,0.18-0.42,0.3-0.6,0.48
		c-0.24,0.9-0.721,1.8-1.501,2.46c-0.3,0.3-0.66,0.54-1.08,0.721c-0.06,0.239-0.18,0.42-0.3,0.6c-0.48,0.721-1.32,1.141-2.221,1.2
		c-6.121,0.181-12.423,0.66-18.484,1.08c-3.3,0.24-6.721,0.48-10.082,0.721h-0.06h-0.061c-0.66,0-1.2-0.3-1.62-0.78
		c-0.12,0.06-0.24,0.06-0.42,0.12c-0.3,0.06-0.66,0.06-0.96,0.06c-1.62,0-3.061-0.78-3.841-2.16c-0.841-1.38-0.78-3.241,0.06-4.501
		c0-0.06,0.061-0.06,0.061-0.06c-0.061-0.18-0.12-0.3-0.12-0.42c-0.601-2.101,0.72-3.961,1.74-5.281c0.12-0.24,0.3-0.48,0.42-0.66
		c1.62-2.581,3.361-5.041,5.041-7.382c1.2-1.68,2.4-3.36,3.601-4.921c0.721-0.96,1.501-1.92,2.281-2.88
		c0.42-0.54,0.84-1.021,1.26-1.561c-0.6,0.12-1.62,0.36-1.62,0.36c-1.021,0.24-2.041,0.48-3.001,0.72c-0.12,0-0.18,0-0.3,0.06
		c-0.48,0.12-1.08,0.24-1.74,0.24c-0.42,0-0.841-0.06-1.261-0.18c-0.54-0.18-1.02-0.54-1.38-1.08c-1.021-0.48-1.801-1.32-2.221-2.46
		c-0.54-1.32-0.54-2.821,0.061-4.081c0-0.9,0.239-1.8,0.6-2.641c0.36-0.72,0.9-1.26,1.681-1.62c0.06-0.42,0.24-0.9,0.42-1.32
		c0.54-1.2,1.801-1.92,3.24-1.92c0.301,0,0.601,0,0.841,0.06c0.06,0,0.12,0,0.12,0c0.42-0.24,0.899-0.36,1.32-0.36l0.84-0.06
		c6.541-0.48,12.663-0.96,18.784-2.64c0.42-0.12,0.84-0.18,1.26-0.18c0.54,0,1.08,0.12,1.621,0.3c0.06,0,0.06,0,0.06,0
		c0.96,0.12,1.74,0.42,2.341,0.84c0.479,0.06,0.96,0.12,1.38,0.24c1.261,0.36,2.341,1.44,2.641,2.76s-0.12,2.641-1.08,3.481
		c-0.36,0.24-0.66,0.54-0.96,0.84c-0.12,0.78-0.54,1.56-1.141,2.1c-0.54,0.42-1.021,0.84-1.44,1.32c0.061,0.12,0.12,0.24,0.181,0.42
		c0.359,0.9,0.18,1.98-0.601,2.7c-0.42,0.42-0.9,0.9-1.32,1.32c-0.06,0.6-0.3,1.141-0.78,1.621
		c-3.961,3.901-7.861,7.921-11.582,11.942c-0.721,0.78-1.381,1.5-2.041,2.281c1.32-0.12,2.641-0.24,3.961-0.36
		c2.521-0.18,4.741-0.3,6.962-0.36c0.54-0.06,1.02-0.06,1.561-0.12c1.38-0.06,2.76-0.12,4.141-0.12c0.479,0,0.9,0,1.38,0
		c1.801,0.06,3.361,1.02,4.261,2.581C243.818,140.313,244.299,141.394,244.299,142.534z M241.479,140.673
		c-0.48-1.08-1.561-1.8-2.821-1.8c-2.28-0.12-4.561,0.06-6.841,0.18c-2.341,0.12-4.621,0.24-6.901,0.42
		c-3.062,0.24-6.182,0.42-9.242,0.9c0.78-0.9,1.5-1.8,2.28-2.701c1.801-2.161,3.661-4.201,5.581-6.241
		c3.781-4.141,7.682-8.162,11.643-12.062c0.601-0.541-0.3-1.44-0.9-0.9c-4.081,3.841-7.922,7.862-11.643,12.062
		c-1.86,2.101-3.66,4.201-5.4,6.361c-0.9,1.08-1.741,2.221-2.641,3.301c-0.12,0.12-0.24,0.3-0.36,0.42
		c-0.24,0.06-0.48,0.12-0.721,0.12c1.081-1.26,2.221-2.581,3.241-3.841c2.4-2.88,4.801-5.761,7.262-8.582
		c2.4-2.821,4.921-5.582,7.441-8.342c2.46-2.701,4.921-5.642,7.741-8.042c1.021-0.9,0.421-2.641-0.78-3
		c-0.54-0.12-1.08-0.18-1.68-0.18c-0.42-0.54-1.08-0.72-1.74-0.78c-0.12-0.06-0.181-0.06-0.301,0c-0.54-0.36-1.26-0.42-1.92-0.24
		c-6.542,1.8-13.263,2.28-19.984,2.76c-0.3,0-0.601,0.12-0.84,0.3c-0.36,0.06-0.841,0.18-1.141,0.06
		c-0.72-0.18-1.681,0.12-1.98,0.78c-0.36,0.78-0.48,1.5-0.48,2.28c-0.899,1.621-0.359,4.081,1.621,4.681c0.12,0.3,0.3,0.6,0.66,0.72
		c0.78,0.24,1.5,0,2.28-0.18c1.32-0.3,2.641-0.6,3.961-0.9c2.34-0.54,4.621-1.08,6.901-1.62c-2.7,2.88-5.281,5.881-7.682,9.002
		c-0.78,0.9-1.561,1.86-2.28,2.82c-2.281,3.001-4.441,6.062-6.422,9.182c-0.78,1.2-2.4,3-1.98,4.501c0.12,0.3,0.36,0.66,0.66,0.9
		c-0.24,0.36-0.54,0.72-0.84,1.08c-0.48,0.72-0.42,1.8,0,2.521c0.6,1.08,1.74,1.38,2.881,1.2c3.48-0.66,7.021-1.2,10.562-1.62
		c-2.82,0.48-5.581,1.14-8.281,1.92c-0.18,0.06-0.12,0.36,0.06,0.3c9.542-0.54,19.084-1.44,28.626-1.8c0.721,0,1.021-0.66,0.841-1.2
		c0.54-0.12,1.08-0.42,1.62-0.84C242.738,143.494,242.679,141.634,241.479,140.673z M223.834,114.868
		c-1.62,0.48-3.24,1.02-4.921,1.5c-2.04,0.66-4.141,1.32-6.241,1.98c-0.18,0.06-0.36,0.12-0.54,0.12c0.06,0,0.06-0.06,0.06-0.06
		c0.721-0.36,1.201-0.9,1.44-1.62C216.993,116.188,220.414,115.528,223.834,114.868z"/>
	<path style="fill:#EFEFEF;" d="M277.125,139.953c-0.181,0.36-0.48,0.72-0.841,0.9c-0.24,0.78-0.66,1.44-1.26,2.041
		c-0.36,0.66-1.021,1.14-1.801,1.32c-4.561,0.9-8.882,2.041-12.902,3.42c-1.86,0.66-3.841,1.381-5.821,2.16
		c-0.12,0.061-0.24,0.12-0.36,0.12l-0.24,0.12c-0.54,0.24-1.08,0.48-1.74,0.721c-0.78,0.54-1.681,0.96-2.881,1.32
		c-0.479,0.18-1.08,0.42-1.8,0.54l-0.181,0.06h-0.18c-0.18,0-0.3,0-0.48-0.06c-0.3,0.06-0.6,0.06-0.899,0.06
		c-1.621,0-2.881-0.78-3.541-2.101c-0.061-0.12-0.12-0.3-0.18-0.479c-0.66-0.48-1.201-1.141-1.561-1.86
		c-0.54-1.081-0.721-2.221-0.54-3.301c-0.181-1.38-0.301-2.761-0.421-4.141c-0.06-0.6-0.119-1.26-0.18-1.92l-1.32-13.503
		c-0.78-1.08-1.2-2.46-1.08-3.841c0.12-1.14,0.54-2.101,1.141-3c-0.181-0.36-0.301-0.72-0.24-1.14c0.06-0.72,0.479-1.38,1.08-1.681
		c0.36-0.24,0.72-0.42,1.08-0.6c-0.06-0.18-0.06-0.42-0.06-0.66c0.06-0.72,0.479-1.38,1.08-1.68
		c4.261-2.281,8.821-3.601,13.143-4.741c0.48-0.18,0.96-0.3,1.38-0.36h0.061l0.6-0.12c2.341-0.48,4.682-0.96,7.142-1.14
		c0.601-0.06,1.2-0.06,1.801-0.06l0.12,0.96c0.66-0.18,1.32-0.36,1.98-0.54l0.78-0.24l0.42,0.12c0.48,0.06,0.96,0.18,1.38,0.3
		s0.78,0.24,1.141,0.42l0.24,0.12l0.24,0.12c0.359,0.3,0.72,0.6,1.02,0.9l0.36,0.36l0.18,0.42c0.54,1.621,0.721,3.181,0.421,4.621
		l-0.181,1.14l-1.08,0.36c-0.24,0.06-0.48,0.12-0.72,0.18c0,0.36,0,0.72-0.061,1.081c0.66,0.36,1.381,0.9,1.921,1.86
		c0.12,0.18,0.18,0.36,0.3,0.6c0,0.06,0.06,0.18,0.12,0.24c0.72,0.6,1.2,1.44,1.44,2.46c0.359,1.8-0.54,3.781-2.161,4.801
		c0,0.06,0,0.06-0.06,0.12c2.28,0.42,5.161,2.4,5.641,9.482C278.685,137.613,278.145,138.933,277.125,139.953z M276.704,136.353
		c-0.239-3.421-1.38-8.702-6.001-7.742c-0.66,0.18-1.26,0.48-1.92,0.66c-0.78,0.24-1.561,0.48-2.341,0.72
		c-1.44,0.48-2.881,1.02-4.321,1.561c-0.899,0.3-1.8,0.66-2.7,1.02c-1.74,0.66-3.421,1.32-5.102,1.98
		c-1.32,0.54-2.641,1.08-3.96,1.68c-0.061,0.06-0.12,0.06-0.181,0.12c0-0.12,0-0.18,0-0.24c-0.12-1.32-0.24-2.581-0.36-3.901
		c1.681-0.84,3.301-1.68,5.041-2.4c2.821-1.2,5.642-2.1,8.522-2.88c1.44-0.36,2.94-0.66,4.381-0.9c1.38-0.3,2.7-0.24,3.961-0.84
		c1.08-0.54,1.8-1.86,1.561-3c-0.12-0.6-0.48-1.2-1.021-1.5c-0.061,0-0.061,0-0.12-0.06c-0.06-0.24-0.18-0.48-0.3-0.72
		c-0.061-0.12-0.12-0.3-0.24-0.48c-0.84-1.44-2.28-1.5-3.781-1.44c-0.72,0.06-1.38,0.12-2.1,0.24c-0.24,0.06-0.541,0.12-0.78,0.18
		c-1.921,0.54-3.901,1.08-5.821,1.561c-3.421,1.26-6.722,2.7-10.082,4.141c0-0.3-0.36-2.46-0.421-3.061c0,0,0.061-0.06,0.12-0.12
		c1.86-0.78,3.781-1.5,5.701-2.161c0.66-0.3,6.602-2.1,9.662-2.94c0.12,0,0.24-0.06,0.36-0.12c1.38-0.36,2.761-0.78,4.081-1.2
		c1.02-0.3,2.04-0.6,3-0.9c0.24-1.201,0.061-2.461-0.359-3.721c-0.301-0.24-0.66-0.54-0.961-0.78c-0.3-0.12-0.6-0.24-0.96-0.36
		c-0.359-0.12-0.78-0.18-1.2-0.24c-3.12,0.84-6.241,1.68-9.422,2.4c-4.081,0.84-8.162,1.74-12.123,3.121
		c-1.26,0.42-2.58,0.9-3.84,1.44c-0.061,0.18-0.181,0.36-0.24,0.48c-0.841,0.72-1.381,1.62-1.501,2.82
		c-0.12,1.021,0.24,2.161,0.961,2.941l0.72,6.841c0.24,2.4,0.48,4.801,0.72,7.202c0.181,2.101,0.301,4.261,0.66,6.301
		c-0.54,1.561,0.48,3.361,1.98,3.961c-0.06,0.3-0.06,0.54,0.061,0.84c0.479,1.02,1.561,1.08,2.521,0.9c0.24,0,0.6-0.06,0.6-0.06
		c-0.06,0.06,3.361-0.96,4.081-1.44l0.061-0.06c0.66-0.3,1.32-0.541,1.98-0.84c0.12-0.06,0.3-0.12,0.42-0.18c0,0,0,0,0.06,0
		c1.98-0.84,4.021-1.56,6.062-2.28c4.261-1.5,8.702-2.641,13.143-3.481c0.36-0.06,0.54-0.3,0.601-0.6
		C276.284,138.273,276.765,137.433,276.704,136.353z M241.897,114.748c1.32-0.6,2.641-1.14,4.021-1.561
		c3.961-1.38,8.042-2.28,12.123-3.181c2.34-0.54,4.74-1.14,7.081-1.74c-0.54,0-1.08,0-1.62,0.06c-2.581,0.18-5.041,0.66-7.502,1.14
		c-0.48,0.12-0.9,0.24-1.38,0.36c-4.321,1.141-8.762,2.461-12.723,4.561C241.777,114.508,241.777,114.688,241.897,114.748z
		 M251.259,145.654c1.141-0.36,2.221-0.78,3.301-1.2v0.12c-0.9,0.48-1.8,0.96-2.761,1.44c-0.42,0.24-0.899,0.48-1.38,0.72
		c-0.06,0.06-0.12,0.06-0.18,0.06c-0.181,0.06-1.561,0.18-2.461,0.06C248.979,146.555,250.119,146.075,251.259,145.654z
		 M261.102,126.271c-0.36,0.12-0.66,0.24-1.021,0.42c-3.001,1.2-6.121,2.34-9.062,3.841c0.48-0.42,0.841-1.02,0.961-1.68
		c1.14-0.3,2.28-0.66,3.48-1.021c1.86-0.6,3.721-1.14,5.581-1.74L261.102,126.271z"/>
	<path style="fill:#EFEFEF;" d="M281.925,146.314c0,0.06-0.061,0.12-0.061,0.24c-0.3,0.9-0.9,1.74-1.681,2.28
		c-0.66,1.921-2.521,3.301-4.561,3.301c-0.9,0-1.801-0.3-2.581-0.84c-0.72-0.24-1.319-0.841-1.56-1.62
		c-0.061-0.181-0.12-0.421-0.181-0.601c-0.18-0.54-0.239-1.08-0.239-1.62c0-0.84,0.239-1.621,0.66-2.281
		c0.3-0.42,0.66-0.78,1.08-1.14c0.06,0,0.06,0,0.12-0.06c0.119-0.36,0.239-0.78,0.479-1.08c0.3-0.48,0.66-0.84,1.08-1.14
		c0.12-0.12,0.24-0.18,0.36-0.3c0.721-0.6,1.561-0.9,2.461-0.9c0.06,0,0.06,0,0.12,0c0.119,0,0.3,0,0.42,0.06
		c1.561,0.06,2.94,1.021,3.66,2.401C282.225,143.974,282.404,145.174,281.925,146.314z M277.663,142.474c-0.06,0-0.18,0-0.3,0
		c-0.54-0.06-0.96,0.18-1.32,0.48c-0.12,0.06-0.24,0.18-0.36,0.24c-0.239,0.18-0.479,0.42-0.72,0.72c-0.24,0.42-0.36,0.84-0.36,1.26
		c0,0.36,0.061,0.72,0.24,1.021c0,0.24,0.061,0.42,0.12,0.6c0.12,0.3,0.36,0.42,0.601,0.42c0.06,0.06,0.119,0.12,0.239,0.18
		c1.501,1.14,3.721,0.3,4.262-1.44c0-0.06,0.06-0.18,0.06-0.24c0.24-0.54,0.24-1.14-0.24-1.68
		C279.523,143.194,278.684,142.534,277.663,142.474z"/>
	<path style="fill:#EFEFEF;" d="M290.686,146.314c0,0.06-0.061,0.12-0.061,0.24c-0.3,0.9-0.9,1.74-1.681,2.28
		c-0.66,1.921-2.521,3.301-4.561,3.301c-0.9,0-1.801-0.3-2.581-0.84c-0.72-0.24-1.319-0.841-1.56-1.62
		c-0.061-0.181-0.12-0.421-0.181-0.601c-0.18-0.54-0.239-1.08-0.239-1.62c0-0.84,0.239-1.621,0.66-2.281
		c0.3-0.42,0.659-0.78,1.08-1.14c0.06,0,0.06,0,0.12-0.06c0.119-0.36,0.239-0.78,0.479-1.08c0.3-0.48,0.66-0.84,1.08-1.14
		c0.12-0.12,0.24-0.18,0.36-0.3c0.721-0.6,1.561-0.9,2.461-0.9c0.06,0,0.06,0,0.12,0c0.119,0,0.3,0,0.42,0.06
		c1.561,0.06,2.94,1.021,3.66,2.401C290.985,143.974,291.165,145.174,290.686,146.314z M286.424,142.474c-0.06,0-0.18,0-0.3,0
		c-0.54-0.06-0.96,0.18-1.32,0.48c-0.12,0.06-0.24,0.18-0.36,0.24c-0.239,0.18-0.479,0.42-0.72,0.72c-0.24,0.42-0.36,0.84-0.36,1.26
		c0,0.36,0.061,0.72,0.24,1.021c0,0.24,0.061,0.42,0.12,0.6c0.12,0.3,0.36,0.42,0.601,0.42c0.06,0.06,0.119,0.12,0.239,0.18
		c1.501,1.14,3.721,0.3,4.261-1.44c0-0.06,0.061-0.18,0.061-0.24c0.24-0.54,0.24-1.14-0.24-1.68
		C288.284,143.194,287.444,142.534,286.424,142.474z"/>
	<path style="fill:#EFEFEF;" d="M299.446,146.314c0,0.06-0.061,0.12-0.061,0.24c-0.3,0.9-0.9,1.74-1.681,2.28
		c-0.66,1.921-2.521,3.301-4.561,3.301c-0.9,0-1.801-0.3-2.581-0.84c-0.72-0.24-1.319-0.841-1.56-1.62
		c-0.061-0.181-0.12-0.421-0.181-0.601c-0.18-0.54-0.239-1.08-0.239-1.62c0-0.84,0.239-1.621,0.66-2.281
		c0.3-0.42,0.66-0.78,1.08-1.14c0.06,0,0.06,0,0.12-0.06c0.119-0.36,0.239-0.78,0.479-1.08c0.3-0.48,0.66-0.84,1.08-1.14
		c0.12-0.12,0.24-0.18,0.36-0.3c0.721-0.6,1.561-0.9,2.461-0.9c0.06,0,0.06,0,0.12,0c0.119,0,0.3,0,0.42,0.06
		c1.561,0.06,2.94,1.021,3.66,2.401C299.746,143.974,299.926,145.174,299.446,146.314z M295.185,142.474c-0.06,0-0.18,0-0.3,0
		c-0.54-0.06-0.96,0.18-1.32,0.48c-0.12,0.06-0.24,0.18-0.36,0.24c-0.239,0.18-0.479,0.42-0.72,0.72c-0.24,0.42-0.36,0.84-0.36,1.26
		c0,0.36,0.061,0.72,0.24,1.021c0,0.24,0.061,0.42,0.12,0.6c0.12,0.3,0.36,0.42,0.601,0.42c0.06,0.06,0.119,0.12,0.239,0.18
		c1.501,1.14,3.721,0.3,4.262-1.44c0-0.06,0.06-0.18,0.06-0.24c0.24-0.54,0.24-1.14-0.24-1.68
		C297.045,143.194,296.205,142.534,295.185,142.474z"/>
</g>
<g>
	<path style="fill:#3FA9F5;" d="M72.375,214.492c0,0.48,0,0.96,0.06,1.5c0,0.42-0.6,0.48-0.72,0.06
		c-0.24-0.96,0.18-2.641-0.06-3.901c-0.24,0-0.54-0.06-0.84-0.06c-0.12,2.461-0.06,4.921-0.12,7.382c0,0.3-0.36,0.3-0.36,0
		c0-0.6,0-1.2,0-1.86c0-1.561,0.06-3.061,0.06-4.621c0-0.3,0-0.66,0-0.96c-0.54-0.06-1.08-0.06-1.62-0.12
		c-0.06,0.78-0.06,1.56-0.12,2.4c0,0.3,0,0.66-0.06,0.96c0,0.36-0.48,0.36-0.54,0c-0.06-1.14-0.12-2.28-0.12-3.42
		c-9.302-0.78-18.604-1.38-27.906-1.38c-0.9-0.06-1.8,0-2.7,0c-0.06,0.48-0.12,1.02-0.3,1.44c-0.12,0.36-0.66,0.18-0.72-0.18
		c0-0.42,0-0.84-0.06-1.26c-3.96,0-7.921,0.06-11.882,0.18c-3.061,0.12-6.241,0.36-9.362,0.42c-0.06,0.12-0.12,0.24-0.12,0.42
		c0.06,0.36,0.06,0.72,0.12,1.14c0.06,0.66-0.96,0.66-1.021,0c-0.06-0.48-0.12-0.96-0.18-1.44c-0.12,0-0.18,0-0.3-0.06
		c-0.06,0.06-0.06,0.06-0.06,0.06c-0.06,0.12-0.18,0.18-0.3,0.24c-0.24,0.12-0.48,0.06-0.6-0.24c0,0,0-0.06,0-0.12
		c0.18,1.32,0.12,2.581,0.18,3.901c0,1.5,0.12,3,0.24,4.501c0,0.42-0.6,0.42-0.6,0c-0.18-1.621-0.3-3.301-0.48-4.921
		c-0.06-1.201-0.18-2.341-0.06-3.481c-0.06,0-0.18,0-0.24,0c-0.06,0.42-0.06,0.84-0.12,1.26c-0.06,0.54-0.72,0.48-0.72,0h-0.06
		c0-0.42-0.06-0.9-0.12-1.32c-0.18,0-0.36,0-0.601-0.06c0,1.32,0.12,2.641,0,3.901c-0.12,1.5,0,3-0.06,4.501
		c0.06,0.3-0.42,0.3-0.48,0c-0.06-1.62,0-3.301-0.18-4.921c-0.12-1.141,0-2.341-0.06-3.541c-0.12,0-0.24,0-0.3,0
		c-0.66-0.12-0.96-1.08-0.3-1.32c4.981-1.74,10.382-2.041,15.603-2.521c1.26-0.12,2.521-0.18,3.841-0.3
		c-2.16,0.12-4.321,0.24-6.481,0.42c-5.041,0.36-10.082,1.02-15.123,1.44c0.24,2.88,0.42,5.761,0.54,8.642
		c0,0.06,0.06,0.06,0.06,0.12c0.06,1.08,0.12,2.161,0.12,3.241c0.06,0.48-0.72,0.48-0.72,0c-0.12-1.08-0.12-2.161-0.18-3.241
		c0-0.06,0-0.18,0.06-0.18c-0.12-2.88-0.24-5.701-0.24-8.582c-0.24,0.06-0.48,0.06-0.72,0.06c-0.36,0.12-0.78,0.24-1.2,0.18h0.06
		c-0.78-0.06-1.62-0.6-1.5-1.5c0.12-1.8,1.92-2.941,3.42-3.601c1.561-0.72,3.181-1.2,4.861-1.5c3.721-0.6,7.501-0.66,11.162-0.78
		c8.222-0.3,16.444-0.36,24.666-0.3c3.48,0,6.961,0,10.442,0.06c0.96,0,1.92,0,2.88,0c0.96,0,1.98-0.18,2.881,0.24
		c1.2,0.48,2.22,1.44,2.22,2.821c0,0.12,0,0.24,0,0.36c2.281,0.18,4.501,0.36,6.782,0.36c1.32,0.06,1.62,1.561,1.08,2.401
		c1.92,1.08,1.56,4.381-0.78,4.741C72.436,212.871,72.375,213.711,72.375,214.492z"/>
</g>
<g>
	<path style="fill:#3FA9F5;" d="M58.333,255.736c-6.241-0.12-12.483-0.18-18.784-0.18c-6.241,0.06-12.482,0.12-18.724,0.24
		c-3.061,0.06-6.061,0.18-9.122,0.24c-1.561,0.06-3.061,0.06-4.561,0.12c-1.26,0-2.821,0.36-4.021-0.06
		c-0.24-0.12-0.48-0.3-0.42-0.601c0-0.48,0.36-0.84,0.72-0.66c1.38,0,2.94-0.42,4.261-0.601c1.5-0.18,2.94-0.42,4.441-0.6
		c3-0.3,6.062-0.6,9.122-0.84c4.261-0.36,8.462-0.6,12.723-0.78c-4.261,0.06-8.462,0.24-12.723,0.42
		c-2.881,0.18-5.821,0.36-8.702,0.42c-2.64,0.06-5.401,0.36-7.981,0c-0.36-0.06-0.3-0.541,0-0.66
		c2.641-0.96,5.701-1.141,8.522-1.561c2.82-0.42,5.761-0.66,8.582-0.9c5.701-0.48,11.402-0.84,17.104-1.14
		c5.642-0.24,11.343-0.42,17.044-0.48c2.94,0,5.821,0,8.762,0c2.761,0,5.581-0.18,8.342,0.12c1.26,0.12,2.281,0.96,2.281,2.28
		c0,0.3-0.06,0.54-0.18,0.84c0.72,0,1.38,0.06,2.101,0.12c2.82,0.24,2.82,4.201,0,4.381
		C70.875,256.276,64.574,255.856,58.333,255.736z"/>
</g>
</svg>
