<?xml version="1.0" encoding="utf-8"?>
<!-- Generator: Adobe Illustrator 18.0.0, SVG Export Plug-In . SVG Version: 6.00 Build 0)  -->
<!DOCTYPE svg PUBLIC "-//W3C//DTD SVG 1.1//EN" "http://www.w3.org/Graphics/SVG/1.1/DTD/svg11.dtd">
<svg version="1.1" id="Layer_2" xmlns="http://www.w3.org/2000/svg" xmlns:xlink="http://www.w3.org/1999/xlink" x="0px" y="0px"
	 viewBox="5 145.8 955 271.4" enable-background="new 5 145.8 955 271.4" xml:space="preserve">
<path opacity="0.5" fill="none" stroke="#000000" stroke-width="0.75" d="M803.6,368.7c0,0,34.5,0.7,46.2-39
	c1.8,3.5,10.4,32.2,34.5,32.2c24.1,0,34.7-32,34.7-32s13.3,38.8,40.1,38.7"/>
<g opacity="0.5">
	<rect x="848.9" y="323.6" width="2.1" height="2.1"/>
	<rect x="918" y="323.6" width="2.1" height="2.1"/>
	<path d="M920.3,379.7v-10h39.2v-2.1h-39.2v-40.5h-2.1v40.5H851v-40.5h-2.1v40.5h-44.7c-0.3-0.7-0.7-1.5-0.7-1.6
		c-2-9.1-10.5-6.9-10.5-6.9s-2.5-3.4-5.6-7.5c-1.9-6.8-5.5-11.7-5.5-11.7l-4.5-3.5c0,0,0,0-3.5-2.2c-6.1-2.4-7.6-8-9-9.9
		c-1.4-1.9-11.6-1.9-13.3-2.2c-3.7-3.3-6.5-1.4-9.3-0.2s-3.7-0.5-3.7-0.5s-1.4-1.6-4.5-1.4c-3.1,0.1-6,3-6,3s-1.1-0.5-2-1.3
		c-0.3,0.7-9.6,5.8-9.6,5.8l-2.1-0.3c0,0-6.7,2.2-10,2.9c-2.2-0.7-1.1-8.2-1.1-10.9c-1.7-0.6-2.4-1.9-3.2-2.7
		c-0.7-0.9-3.2,3.5-3.2,3.5s-0.6,2.1-1.9,3.8s-4.6-0.7-4.6-0.7l0.6-1.9l-0.6-0.4l-1.6-0.3c0,0-2.7,0.1-4,0.1c-1.3,0-5-0.2-5-0.2
		l1.7-6.3l0.2,3.6l0.9,0.6l1.1,0.5l1.2,0.8l1.2,0.2l1.6-0.5l3,0.5c0,0,0.5,0.2,1.3-1.5c-1-0.7-1.1-5.8-1.1-5.8s-4,0.6-5.1,0.3
		c-1.2-0.2,0.9-2.4,0.9-2.4s-0.2-0.8-0.2-1.9c0-1.1,1.7-0.1,2,0.6c0.2,0.7-0.9,0.8-0.9,0.8l1.1,1l1.1-1.6l-0.4-0.6l-0.9-2.4
		l-0.5-0.7c0,0-1.6-0.2-3.9-1.1s-2.1-3.3-2.1-3.3s-4,0.7-6,0.8c-1.7-0.7-2.5,1.1-3.3,2.5s-0.7,4.7-0.7,4.7l-1.6,1.9l0.5,1.6h-3.6
		v-35.8h-1v-3.8h-10.4v4.2H655v36.7l-3.7-2.4l-0.8-2.9l-1.7,0.9l0.4,2.7c0,0-0.8-0.1-2.2-0.5c-0.4-2,0.7-3,1.9-4.7
		c1.2-1.7-1.5-1.5-3.7-1.6c-2.2-0.1-3.5,2-3.5,2l-3-3.1c0,0-2.4,2.9-3.3,3.2c-0.9,0.4-1.3,0.9-1.3,0.9l-2.4,4.6h2.2l1.1-1.2h1.4v2.9
		h-3.9l-1.9,3.2l-1.2,2.5c0,0-0.7,0.3-3.5,0.4c-2.8,0.1-5.2-4-5.2-4v-7.5h-4.4v-7.8H606v4.4l-5.3-3.8l-3.8,0.3v-19.1l-5.3-5.3
		l-4.4,1.6v-3.4h-5.9v-6.9h-2.5v-2.5h-5.6v2.2h-5v-1.6h-11.9l-0.3,2.2h-3.4v24.7l-4.7-2.2l-8.1,3.1v-7.2h-5v-7.5h-7.8v7.5h-5.3
		c0,0,0.3,0,0,5.3c-8.1,0.9-9.7-3.1-9.7-3.1h-14.1v-3.8H493v-3.8l-3.1,0.3l-2.5-1.6l-4.4,1.9l-4.1-2.5c0,0-9.7,0-10.6,0
		c-0.9,0-7.5-3.1-9.4-4.4c-1.9-1.3-4.7-2.2-4.7-2.2l-8.1,1.3v-6h-5.6v-6.9h-8.1v7.5h-5.6v7.2h-6.9v-2.8h-2.5v-2.2h-13.5v-24.4h-15.7
		l-1.3-2.2l-2.5,2.5v4.4H380v25c0,0,0.3,4.7-2.5,2.2c-2.8-2.5-5.6,0.3-5.6,0.3l-4.7-2.2l-3.4-1.6l-1.6,1.9c0,0-2.5-0.3-5,0.6
		c-2.5,0.9-2.2,4.1-5,6.6c-3.8-1.6-5.9,0.3-5.9,0.3v-15h-4.1v-10.3l-8.8-7.5l-8.1,7.5v12.5h-8.8l-8.9-73.9l1.4-5.9h-1.9l-6.9-47.6
		l-7.2,47.6h-1.6l1.6,5.9l-9.4,83.9h-3.1v-2.5h-6.9v3.1h-5.9v11.9h-16v5h-2.2v-57h-41.6v51H205v-31.6h-13.1v-4.1H149v5h-8.8v-87.3
		H128v-9.4H96.1v10H84.5v33.2h-8.8v15h-5.6v26.3H58.2v3.8h-4.4v2.2H52v-8.5H7.2v11H0V380h0v37.1h959.4v-37.4L920.3,379.7
		L920.3,379.7z M918.1,369.8v10H851v-10H918.1z M814.6,378.9l-2.3-0.7l-2-0.2l-1.8-0.8l-0.8-1c0,0-0.4-1.1-1.9-3.3
		c-0.8-1.2-1.1-2.3-1.1-3.1h44.3v10h-33.7L814.6,378.9z"/>
</g>
</svg>
